RubikHebrew-Medium.ufo
<glyph name="exclam" format="1">
  <advance width="269"/>
  <unicode hex="0021"/>
  <outline>
    <contour>
      <point x="176" y="195" type="line" smooth="yes"/>
      <point x="189" y="195"/>
      <point x="200" y="205"/>
      <point x="200" y="219" type="curve" smooth="yes"/>
      <point x="200" y="676" type="line" smooth="yes"/>
      <point x="200" y="690"/>
      <point x="189" y="700"/>
      <point x="176" y="700" type="curve" smooth="yes"/>
      <point x="93" y="700" type="line" smooth="yes"/>
      <point x="79" y="700"/>
      <point x="69" y="690"/>
      <point x="69" y="676" type="curve" smooth="yes"/>
      <point x="69" y="219" type="line" smooth="yes"/>
      <point x="69" y="205"/>
      <point x="79" y="195"/>
      <point x="93" y="195" type="curve" smooth="yes"/>
    </contour>
    <contour>
      <point x="182" y="0" type="line" smooth="yes"/>
      <point x="196" y="0"/>
      <point x="206" y="10"/>
      <point x="206" y="24" type="curve" smooth="yes"/>
      <point x="206" y="119" type="line" smooth="yes"/>
      <point x="206" y="133"/>
      <point x="196" y="143"/>
      <point x="182" y="143" type="curve" smooth="yes"/>
      <point x="87" y="143" type="line" smooth="yes"/>
      <point x="73" y="143"/>
      <point x="63" y="133"/>
      <point x="63" y="119" type="curve" smooth="yes"/>
      <point x="63" y="24" type="line" smooth="yes"/>
      <point x="63" y="10"/>
      <point x="73" y="0"/>
      <point x="87" y="0" type="curve" smooth="yes"/>
    </contour>
  </outline>
</glyph>
<glyph name="quotedbl" format="1">
  <advance width="415"/>
  <unicode hex="0022"/>
  <outline>
    <contour>
      <point x="322" y="466" type="line" smooth="yes"/>
      <point x="339" y="466"/>
      <point x="345" y="478"/>
      <point x="346" y="491" type="curve" smooth="yes"/>
      <point x="366" y="683" type="line" smooth="yes"/>
      <point x="368" y="700"/>
      <point x="359" y="710"/>
      <point x="344" y="710" type="curve" smooth="yes"/>
      <point x="254" y="710" type="line" smooth="yes"/>
      <point x="239" y="710"/>
      <point x="230" y="700"/>
      <point x="232" y="683" type="curve" smooth="yes"/>
      <point x="252" y="491" type="line" smooth="yes"/>
      <point x="253" y="478"/>
      <point x="259" y="466"/>
      <point x="276" y="466" type="curve" smooth="yes"/>
    </contour>
    <contour>
      <point x="138" y="466" type="line" smooth="yes"/>
      <point x="155" y="466"/>
      <point x="161" y="478"/>
      <point x="162" y="491" type="curve" smooth="yes"/>
      <point x="182" y="683" type="line" smooth="yes"/>
      <point x="184" y="700"/>
      <point x="175" y="710"/>
      <point x="160" y="710" type="curve" smooth="yes"/>
      <point x="70" y="710" type="line" smooth="yes"/>
      <point x="55" y="710"/>
      <point x="46" y="700"/>
      <point x="48" y="683" type="curve" smooth="yes"/>
      <point x="68" y="491" type="line" smooth="yes"/>
      <point x="69" y="478"/>
      <point x="75" y="466"/>
      <point x="92" y="466" type="curve" smooth="yes"/>
    </contour>
  </outline>
</glyph>
<glyph name="quotesingle" format="1">
  <advance width="231"/>
  <unicode hex="0027"/>
  <outline>
    <contour>
      <point x="138" y="466" type="line" smooth="yes"/>
      <point x="155" y="466"/>
      <point x="161" y="478"/>
      <point x="162" y="491" type="curve" smooth="yes"/>
      <point x="182" y="683" type="line" smooth="yes"/>
      <point x="184" y="700"/>
      <point x="175" y="710"/>
      <point x="160" y="710" type="curve" smooth="yes"/>
      <point x="70" y="710" type="line" smooth="yes"/>
      <point x="55" y="710"/>
      <point x="46" y="700"/>
      <point x="48" y="683" type="curve" smooth="yes"/>
      <point x="68" y="491" type="line" smooth="yes"/>
      <point x="69" y="478"/>
      <point x="75" y="466"/>
      <point x="92" y="466" type="curve" smooth="yes"/>
    </contour>
  </outline>
</glyph>
<glyph name="parenleft" format="1">
  <advance width="362"/>
  <unicode hex="0028"/>
  <outline>
    <contour>
      <point x="327" y="-159"/>
      <point x="338" y="-148"/>
      <point x="338" y="-135" type="curve" smooth="yes"/>
      <point x="338" y="-74" type="line" smooth="yes"/>
      <point x="338" y="-61"/>
      <point x="327" y="-50"/>
      <point x="316" y="-50" type="curve" smooth="yes"/>
      <point x="206" y="-46"/>
      <point x="171" y="64"/>
      <point x="171" y="309" type="curve" smooth="yes"/>
      <point x="171" y="554"/>
      <point x="206" y="663"/>
      <point x="316" y="667" type="curve" smooth="yes"/>
      <point x="327" y="667"/>
      <point x="338" y="678"/>
      <point x="338" y="691" type="curve" smooth="yes"/>
      <point x="338" y="752" type="line" smooth="yes"/>
      <point x="338" y="765"/>
      <point x="327" y="776"/>
      <point x="314" y="776" type="curve" smooth="yes"/>
      <point x="136" y="776"/>
      <point x="49" y="639"/>
      <point x="49" y="309" type="curve" smooth="yes"/>
      <point x="49" y="-21"/>
      <point x="136" y="-159"/>
      <point x="314" y="-159" type="curve" smooth="yes"/>
    </contour>
  </outline>
</glyph>
<glyph name="period" format="1">
  <advance width="269"/>
  <unicode hex="002E"/>
  <outline>
    <contour>
      <point x="185" y="0" type="line" smooth="yes"/>
      <point x="198" y="0"/>
      <point x="209" y="10"/>
      <point x="209" y="24" type="curve" smooth="yes"/>
      <point x="209" y="125" type="line" smooth="yes"/>
      <point x="209" y="138"/>
      <point x="198" y="149"/>
      <point x="185" y="149" type="curve" smooth="yes"/>
      <point x="84" y="149" type="line" smooth="yes"/>
      <point x="70" y="149"/>
      <point x="60" y="138"/>
      <point x="60" y="125" type="curve" smooth="yes"/>
      <point x="60" y="24" type="line" smooth="yes"/>
      <point x="60" y="10"/>
      <point x="70" y="0"/>
      <point x="84" y="0" type="curve" smooth="yes"/>
    </contour>
  </outline>
</glyph>
<glyph name="zero" format="1">
  <advance width="659"/>
  <unicode hex="0030"/>
  <outline>
    <contour>
      <point x="518" y="-10"/>
      <point x="593" y="111"/>
      <point x="600" y="258" type="curve" smooth="yes"/>
      <point x="602" y="312"/>
      <point x="602" y="387"/>
      <point x="600" y="444" type="curve" smooth="yes"/>
      <point x="594" y="591"/>
      <point x="514" y="710"/>
      <point x="329" y="710" type="curve"/>
      <point x="144" y="710"/>
      <point x="64" y="591"/>
      <point x="58" y="444" type="curve" smooth="yes"/>
      <point x="56" y="387"/>
      <point x="56" y="312"/>
      <point x="58" y="258" type="curve" smooth="yes"/>
      <point x="65" y="111"/>
      <point x="140" y="-10"/>
      <point x="329" y="-10" type="curve"/>
    </contour>
    <contour>
      <point x="244" y="107"/>
      <point x="205" y="167"/>
      <point x="203" y="263" type="curve" smooth="yes"/>
      <point x="201" y="320"/>
      <point x="201" y="384"/>
      <point x="203" y="439" type="curve" smooth="yes"/>
      <point x="205" y="532"/>
      <point x="243" y="594"/>
      <point x="329" y="595" type="curve"/>
      <point x="414" y="594"/>
      <point x="452" y="532"/>
      <point x="454" y="439" type="curve" smooth="yes"/>
      <point x="456" y="384"/>
      <point x="456" y="320"/>
      <point x="454" y="263" type="curve" smooth="yes"/>
      <point x="452" y="167"/>
      <point x="413" y="107"/>
      <point x="329" y="107" type="curve" smooth="yes"/>
    </contour>
  </outline>
</glyph>
<glyph name="one" format="1">
  <advance width="464"/>
  <unicode hex="0031"/>
  <outline>
    <contour>
      <point x="370" y="0" type="line" smooth="yes"/>
      <point x="383" y="0"/>
      <point x="394" y="10"/>
      <point x="394" y="24" type="curve" smooth="yes"/>
      <point x="394" y="676" type="line" smooth="yes"/>
      <point x="394" y="690"/>
      <point x="383" y="700"/>
      <point x="370" y="700" type="curve" smooth="yes"/>
      <point x="280" y="700" type="line" smooth="yes"/>
      <point x="271" y="700"/>
      <point x="264" y="699"/>
      <point x="255" y="693" type="curve" smooth="yes"/>
      <point x="31" y="519" type="line"/>
      <point x="19" y="511"/>
      <point x="17" y="496"/>
      <point x="25" y="485" type="curve"/>
      <point x="68" y="429" type="line" smooth="yes"/>
      <point x="77" y="418"/>
      <point x="90" y="415"/>
      <point x="102" y="424" type="curve" smooth="yes"/>
      <point x="253" y="540" type="line"/>
      <point x="253" y="24" type="line" smooth="yes"/>
      <point x="253" y="10"/>
      <point x="263" y="0"/>
      <point x="277" y="0" type="curve" smooth="yes"/>
    </contour>
  </outline>
</glyph>
<glyph name="less" format="1">
  <advance width="505"/>
  <unicode hex="003C"/>
  <outline>
    <contour>
      <point x="433" y="55"/>
      <point x="442" y="63"/>
      <point x="442" y="75" type="curve" smooth="yes"/>
      <point x="442" y="153" type="line" smooth="yes"/>
      <point x="442" y="171"/>
      <point x="430" y="179"/>
      <point x="416" y="189" type="curve" smooth="yes"/>
      <point x="174" y="351" type="line"/>
      <point x="416" y="513" type="line" smooth="yes"/>
      <point x="430" y="523"/>
      <point x="442" y="531"/>
      <point x="442" y="550" type="curve" smooth="yes"/>
      <point x="442" y="627" type="line" smooth="yes"/>
      <point x="442" y="640"/>
      <point x="433" y="648"/>
      <point x="421" y="648" type="curve" smooth="yes"/>
      <point x="415" y="648"/>
      <point x="406" y="643"/>
      <point x="401" y="639" type="curve" smooth="yes"/>
      <point x="62" y="408" type="line" smooth="yes"/>
      <point x="42" y="394"/>
      <point x="33" y="383"/>
      <point x="33" y="363" type="curve" smooth="yes"/>
      <point x="33" y="339" type="line" smooth="yes"/>
      <point x="33" y="320"/>
      <point x="42" y="308"/>
      <point x="62" y="295" type="curve" smooth="yes"/>
      <point x="401" y="63" type="line" smooth="yes"/>
      <point x="406" y="60"/>
      <point x="415" y="55"/>
      <point x="421" y="55" type="curve" smooth="yes"/>
    </contour>
  </outline>
</glyph>
<glyph name="I" format="1">
  <advance width="300"/>
  <unicode hex="0049"/>
  <outline>
    <contour>
      <point x="198" y="0" type="line" smooth="yes"/>
      <point x="212" y="0"/>
      <point x="222" y="10"/>
      <point x="222" y="24" type="curve" smooth="yes"/>
      <point x="222" y="676" type="line" smooth="yes"/>
      <point x="222" y="690"/>
      <point x="212" y="700"/>
      <point x="198" y="700" type="curve" smooth="yes"/>
      <point x="102" y="700" type="line" smooth="yes"/>
      <point x="88" y="700"/>
      <point x="78" y="690"/>
      <point x="78" y="676" type="curve" smooth="yes"/>
      <point x="78" y="24" type="line" smooth="yes"/>
      <point x="78" y="10"/>
      <point x="88" y="0"/>
      <point x="102" y="0" type="curve" smooth="yes"/>
    </contour>
  </outline>
</glyph>
<glyph name="S" format="1">
  <advance width="643"/>
  <unicode hex="0053"/>
  <outline>
    <contour>
      <point x="491" y="-10"/>
      <point x="606" y="68"/>
      <point x="606" y="200" type="curve" smooth="yes"/>
      <point x="606" y="318"/>
      <point x="533" y="367"/>
      <point x="362" y="405" type="curve" smooth="yes"/>
      <point x="241" y="436"/>
      <point x="198" y="458"/>
      <point x="198" y="512" type="curve" smooth="yes"/>
      <point x="198" y="567"/>
      <point x="244" y="594"/>
      <point x="316" y="594" type="curve" smooth="yes"/>
      <point x="384" y="594"/>
      <point x="431" y="560"/>
      <point x="439" y="519" type="curve" smooth="yes"/>
      <point x="445" y="505"/>
      <point x="456" y="501"/>
      <point x="468" y="501" type="curve" smooth="yes"/>
      <point x="563" y="501" type="line" smooth="yes"/>
      <point x="576" y="501"/>
      <point x="584" y="511"/>
      <point x="584" y="522" type="curve" smooth="yes"/>
      <point x="581" y="603"/>
      <point x="491" y="710"/>
      <point x="316" y="710" type="curve" smooth="yes"/>
      <point x="153" y="710"/>
      <point x="54" y="625"/>
      <point x="54" y="509" type="curve" smooth="yes"/>
      <point x="54" y="390"/>
      <point x="132" y="338"/>
      <point x="281" y="303" type="curve" smooth="yes"/>
      <point x="410" y="269"/>
      <point x="462" y="250"/>
      <point x="462" y="194" type="curve" smooth="yes"/>
      <point x="462" y="140"/>
      <point x="416" y="106"/>
      <point x="321" y="106" type="curve" smooth="yes"/>
      <point x="232" y="106"/>
      <point x="191" y="147"/>
      <point x="178" y="186" type="curve" smooth="yes"/>
      <point x="171" y="197"/>
      <point x="164" y="205"/>
      <point x="147" y="205" type="curve" smooth="yes"/>
      <point x="56" y="205" type="line" smooth="yes"/>
      <point x="44" y="205"/>
      <point x="35" y="195"/>
      <point x="35" y="184" type="curve" smooth="yes"/>
      <point x="38" y="84"/>
      <point x="135" y="-10"/>
      <point x="321" y="-10" type="curve" smooth="yes"/>
    </contour>
  </outline>
</glyph>
<glyph name="Y" format="1">
  <advance width="665"/>
  <unicode hex="0059"/>
  <outline>
    <contour>
      <point x="378" y="0" type="line" smooth="yes"/>
      <point x="393" y="0"/>
      <point x="403" y="10"/>
      <point x="403" y="24" type="curve" smooth="yes"/>
      <point x="403" y="249" type="line"/>
      <point x="639" y="668" type="line" smooth="yes"/>
      <point x="640" y="671"/>
      <point x="642" y="675"/>
      <point x="642" y="679" type="curve" smooth="yes"/>
      <point x="642" y="691"/>
      <point x="633" y="700"/>
      <point x="621" y="700" type="curve" smooth="yes"/>
      <point x="531" y="700" type="line" smooth="yes"/>
      <point x="515" y="700"/>
      <point x="505" y="689"/>
      <point x="500" y="681" type="curve" smooth="yes"/>
      <point x="332" y="391" type="line"/>
      <point x="164" y="681" type="line" smooth="yes"/>
      <point x="159" y="689"/>
      <point x="149" y="700"/>
      <point x="133" y="700" type="curve" smooth="yes"/>
      <point x="43" y="700" type="line" smooth="yes"/>
      <point x="31" y="700"/>
      <point x="22" y="691"/>
      <point x="22" y="679" type="curve" smooth="yes"/>
      <point x="22" y="675"/>
      <point x="24" y="671"/>
      <point x="25" y="668" type="curve" smooth="yes"/>
      <point x="261" y="249" type="line"/>
      <point x="261" y="24" type="line" smooth="yes"/>
      <point x="261" y="10"/>
      <point x="272" y="0"/>
      <point x="285" y="0" type="curve" smooth="yes"/>
    </contour>
  </outline>
</glyph>
<glyph name="bracketleft" format="1">
  <advance width="356"/>
  <unicode hex="005B"/>
  <outline>
    <contour>
      <point x="305" y="-159" type="line" smooth="yes"/>
      <point x="319" y="-159"/>
      <point x="330" y="-149"/>
      <point x="330" y="-135" type="curve" smooth="yes"/>
      <point x="330" y="-66" type="line" smooth="yes"/>
      <point x="330" y="-52"/>
      <point x="319" y="-41"/>
      <point x="305" y="-41" type="curve" smooth="yes"/>
      <point x="191" y="-41" type="line"/>
      <point x="191" y="666" type="line"/>
      <point x="305" y="666" type="line" smooth="yes"/>
      <point x="319" y="666"/>
      <point x="330" y="676"/>
      <point x="330" y="690" type="curve" smooth="yes"/>
      <point x="330" y="752" type="line" smooth="yes"/>
      <point x="330" y="766"/>
      <point x="319" y="776"/>
      <point x="305" y="776" type="curve" smooth="yes"/>
      <point x="91" y="776" type="line" smooth="yes"/>
      <point x="77" y="776"/>
      <point x="67" y="766"/>
      <point x="67" y="752" type="curve" smooth="yes"/>
      <point x="67" y="-135" type="line" smooth="yes"/>
      <point x="67" y="-149"/>
      <point x="77" y="-159"/>
      <point x="91" y="-159" type="curve" smooth="yes"/>
    </contour>
  </outline>
</glyph>
<glyph name="backslash" format="1">
  <advance width="509"/>
  <unicode hex="005C"/>
  <outline>
    <contour>
      <point x="463" y="-84" type="line" smooth="yes"/>
      <point x="474" y="-84"/>
      <point x="484" y="-75"/>
      <point x="484" y="-63" type="curve" smooth="yes"/>
      <point x="484" y="-61"/>
      <point x="483" y="-57"/>
      <point x="481" y="-52" type="curve"/>
      <point x="141" y="765" type="line" smooth="yes"/>
      <point x="137" y="774"/>
      <point x="128" y="786"/>
      <point x="110" y="786" type="curve" smooth="yes"/>
      <point x="44" y="786" type="line" smooth="yes"/>
      <point x="32" y="786"/>
      <point x="23" y="777"/>
      <point x="23" y="765" type="curve" smooth="yes"/>
      <point x="23" y="763"/>
      <point x="24" y="759"/>
      <point x="26" y="754" type="curve" smooth="yes"/>
      <point x="367" y="-63" type="line" smooth="yes"/>
      <point x="370" y="-71"/>
      <point x="379" y="-84"/>
      <point x="398" y="-84" type="curve" smooth="yes"/>
    </contour>
  </outline>
</glyph>
<glyph name="c" format="1">
  <advance width="572"/>
  <unicode hex="0063"/>
  <outline>
    <contour>
      <point x="466" y="-10"/>
      <point x="531" y="104"/>
      <point x="534" y="164" type="curve" smooth="yes"/>
      <point x="535" y="177"/>
      <point x="524" y="188"/>
      <point x="510" y="188" type="curve" smooth="yes"/>
      <point x="421" y="188" type="line" smooth="yes"/>
      <point x="407" y="188"/>
      <point x="400" y="181"/>
      <point x="395" y="167" type="curve" smooth="yes"/>
      <point x="375" y="115"/>
      <point x="345" y="95"/>
      <point x="294" y="95" type="curve" smooth="yes"/>
      <point x="228" y="95"/>
      <point x="187" y="134"/>
      <point x="184" y="225" type="curve" smooth="yes"/>
      <point x="183" y="244"/>
      <point x="183" y="271"/>
      <point x="184" y="295" type="curve" smooth="yes"/>
      <point x="186" y="385"/>
      <point x="228" y="425"/>
      <point x="294" y="425" type="curve" smooth="yes"/>
      <point x="343" y="425"/>
      <point x="375" y="405"/>
      <point x="395" y="353" type="curve" smooth="yes"/>
      <point x="401" y="339"/>
      <point x="407" y="332"/>
      <point x="421" y="332" type="curve" smooth="yes"/>
      <point x="510" y="332" type="line" smooth="yes"/>
      <point x="524" y="332"/>
      <point x="535" y="343"/>
      <point x="534" y="356" type="curve" smooth="yes"/>
      <point x="531" y="421"/>
      <point x="462" y="530"/>
      <point x="292" y="530" type="curve" smooth="yes"/>
      <point x="146" y="530"/>
      <point x="51" y="445"/>
      <point x="46" y="300" type="curve" smooth="yes"/>
      <point x="45" y="279"/>
      <point x="45" y="240"/>
      <point x="46" y="220" type="curve" smooth="yes"/>
      <point x="52" y="75"/>
      <point x="146" y="-10"/>
      <point x="292" y="-10" type="curve" smooth="yes"/>
    </contour>
  </outline>
</glyph>
<glyph name="m" format="1">
  <advance width="903"/>
  <unicode hex="006D"/>
  <outline>
    <contour>
      <point x="175" y="0" type="line" smooth="yes"/>
      <point x="189" y="0"/>
      <point x="199" y="10"/>
      <point x="199" y="24" type="curve" smooth="yes"/>
      <point x="199" y="303" type="line" smooth="yes"/>
      <point x="199" y="392"/>
      <point x="247" y="422"/>
      <point x="293" y="422" type="curve" smooth="yes"/>
      <point x="343" y="422"/>
      <point x="389" y="392"/>
      <point x="389" y="303" type="curve" smooth="yes"/>
      <point x="389" y="24" type="line" smooth="yes"/>
      <point x="389" y="10"/>
      <point x="400" y="0"/>
      <point x="413" y="0" type="curve" smooth="yes"/>
      <point x="497" y="0" type="line" smooth="yes"/>
      <point x="511" y="0"/>
      <point x="521" y="10"/>
      <point x="521" y="24" type="curve" smooth="yes"/>
      <point x="521" y="303" type="line" smooth="yes"/>
      <point x="521" y="392"/>
      <point x="569" y="422"/>
      <point x="615" y="422" type="curve" smooth="yes"/>
      <point x="667" y="422"/>
      <point x="711" y="392"/>
      <point x="711" y="303" type="curve" smooth="yes"/>
      <point x="711" y="24" type="line" smooth="yes"/>
      <point x="711" y="10"/>
      <point x="721" y="0"/>
      <point x="735" y="0" type="curve" smooth="yes"/>
      <point x="818" y="0" type="line" smooth="yes"/>
      <point x="832" y="0"/>
      <point x="842" y="10"/>
      <point x="842" y="24" type="curve" smooth="yes"/>
      <point x="842" y="311" type="line" smooth="yes"/>
      <point x="842" y="460"/>
      <point x="760" y="530"/>
      <point x="656" y="530" type="curve" smooth="yes"/>
      <point x="586" y="530"/>
      <point x="524" y="493"/>
      <point x="493" y="441" type="curve"/>
      <point x="464" y="501"/>
      <point x="411" y="531"/>
      <point x="334" y="530" type="curve" smooth="yes"/>
      <point x="268" y="529"/>
      <point x="222" y="499"/>
      <point x="193" y="462" type="curve"/>
      <point x="193" y="496" type="line" smooth="yes"/>
      <point x="193" y="510"/>
      <point x="183" y="520"/>
      <point x="169" y="520" type="curve" smooth="yes"/>
      <point x="90" y="520" type="line" smooth="yes"/>
      <point x="76" y="520"/>
      <point x="66" y="510"/>
      <point x="66" y="496" type="curve" smooth="yes"/>
      <point x="66" y="24" type="line" smooth="yes"/>
      <point x="66" y="10"/>
      <point x="76" y="0"/>
      <point x="90" y="0" type="curve" smooth="yes"/>
    </contour>
  </outline>
</glyph>
<glyph name="t" format="1">
  <advance width="431"/>
  <unicode hex="0074"/>
  <outline>
    <contour>
      <point x="384" y="0" type="line" smooth="yes"/>
      <point x="397" y="0"/>
      <point x="408" y="10"/>
      <point x="408" y="24" type="curve" smooth="yes"/>
      <point x="408" y="87" type="line" smooth="yes"/>
      <point x="408" y="101"/>
      <point x="397" y="111"/>
      <point x="384" y="111" type="curve" smooth="yes"/>
      <point x="314" y="111" type="line" smooth="yes"/>
      <point x="267" y="111"/>
      <point x="250" y="143"/>
      <point x="250" y="198" type="curve" smooth="yes"/>
      <point x="250" y="413" type="line"/>
      <point x="374" y="413" type="line" smooth="yes"/>
      <point x="388" y="413"/>
      <point x="398" y="424"/>
      <point x="398" y="437" type="curve" smooth="yes"/>
      <point x="398" y="496" type="line" smooth="yes"/>
      <point x="398" y="510"/>
      <point x="388" y="520"/>
      <point x="374" y="520" type="curve" smooth="yes"/>
      <point x="250" y="520" type="line"/>
      <point x="250" y="686" type="line" smooth="yes"/>
      <point x="250" y="700"/>
      <point x="239" y="710"/>
      <point x="225" y="710" type="curve" smooth="yes"/>
      <point x="143" y="710" type="line" smooth="yes"/>
      <point x="129" y="710"/>
      <point x="119" y="700"/>
      <point x="119" y="686" type="curve" smooth="yes"/>
      <point x="119" y="520" type="line"/>
      <point x="40" y="520" type="line" smooth="yes"/>
      <point x="26" y="520"/>
      <point x="16" y="510"/>
      <point x="16" y="496" type="curve" smooth="yes"/>
      <point x="16" y="437" type="line" smooth="yes"/>
      <point x="16" y="424"/>
      <point x="26" y="413"/>
      <point x="40" y="413" type="curve" smooth="yes"/>
      <point x="119" y="413" type="line"/>
      <point x="119" y="187" type="line" smooth="yes"/>
      <point x="119" y="64"/>
      <point x="180" y="0"/>
      <point x="302" y="0" type="curve" smooth="yes"/>
    </contour>
  </outline>
</glyph>
<glyph name="w" format="1">
  <advance width="821"/>
  <unicode hex="0077"/>
  <outline>
    <contour>
      <point x="274" y="0" type="line" smooth="yes"/>
      <point x="293" y="0"/>
      <point x="303" y="10"/>
      <point x="307" y="25" type="curve" smooth="yes"/>
      <point x="411" y="339" type="line"/>
      <point x="514" y="25" type="line" smooth="yes"/>
      <point x="519" y="10"/>
      <point x="529" y="0"/>
      <point x="548" y="0" type="curve" smooth="yes"/>
      <point x="613" y="0" type="line" smooth="yes"/>
      <point x="632" y="0"/>
      <point x="641" y="10"/>
      <point x="646" y="25" type="curve" smooth="yes"/>
      <point x="789" y="489" type="line" smooth="yes"/>
      <point x="790" y="492"/>
      <point x="790" y="496"/>
      <point x="790" y="498" type="curve" smooth="yes"/>
      <point x="790" y="510"/>
      <point x="781" y="520"/>
      <point x="769" y="520" type="curve" smooth="yes"/>
      <point x="694" y="520" type="line" smooth="yes"/>
      <point x="678" y="520"/>
      <point x="668" y="509"/>
      <point x="667" y="501" type="curve" smooth="yes"/>
      <point x="569" y="172" type="line"/>
      <point x="466" y="498" type="line" smooth="yes"/>
      <point x="463" y="508"/>
      <point x="454" y="520"/>
      <point x="436" y="520" type="curve" smooth="yes"/>
      <point x="386" y="520" type="line" smooth="yes"/>
      <point x="367" y="520"/>
      <point x="358" y="508"/>
      <point x="356" y="498" type="curve" smooth="yes"/>
      <point x="252" y="172" type="line"/>
      <point x="155" y="501" type="line" smooth="yes"/>
      <point x="153" y="509"/>
      <point x="144" y="520"/>
      <point x="128" y="520" type="curve" smooth="yes"/>
      <point x="53" y="520" type="line" smooth="yes"/>
      <point x="41" y="520"/>
      <point x="31" y="510"/>
      <point x="31" y="498" type="curve" smooth="yes"/>
      <point x="31" y="496"/>
      <point x="32" y="492"/>
      <point x="33" y="489" type="curve" smooth="yes"/>
      <point x="176" y="25" type="line" smooth="yes"/>
      <point x="181" y="10"/>
      <point x="189" y="0"/>
      <point x="208" y="0" type="curve" smooth="yes"/>
    </contour>
  </outline>
</glyph>
<glyph name="y" format="1">
  <advance width="575"/>
  <unicode hex="0079"/>
  <outline>
    <contour>
      <point x="240" y="-190" type="line" smooth="yes"/>
      <point x="256" y="-190"/>
      <point x="264" y="-181"/>
      <point x="268" y="-171" type="curve" smooth="yes"/>
      <point x="552" y="484" type="line"/>
      <point x="554" y="491"/>
      <point x="556" y="495"/>
      <point x="556" y="500" type="curve" smooth="yes"/>
      <point x="556" y="511"/>
      <point x="546" y="520"/>
      <point x="534" y="520" type="curve" smooth="yes"/>
      <point x="453" y="520" type="line" smooth="yes"/>
      <point x="437" y="520"/>
      <point x="430" y="511"/>
      <point x="425" y="501" type="curve" smooth="yes"/>
      <point x="290" y="175" type="line"/>
      <point x="158" y="501" type="line" smooth="yes"/>
      <point x="154" y="511"/>
      <point x="147" y="520"/>
      <point x="131" y="520" type="curve" smooth="yes"/>
      <point x="48" y="520" type="line" smooth="yes"/>
      <point x="36" y="520"/>
      <point x="27" y="510"/>
      <point x="26" y="498" type="curve" smooth="yes"/>
      <point x="26" y="495"/>
      <point x="27" y="491"/>
      <point x="30" y="484" type="curve" smooth="yes"/>
      <point x="222" y="31" type="line"/>
      <point x="144" y="-154" type="line" smooth="yes"/>
      <point x="140" y="-161"/>
      <point x="140" y="-165"/>
      <point x="140" y="-170" type="curve" smooth="yes"/>
      <point x="140" y="-181"/>
      <point x="149" y="-190"/>
      <point x="160" y="-190" type="curve" smooth="yes"/>
    </contour>
  </outline>
</glyph>
<glyph name="bar" format="1">
  <advance width="249"/>
  <unicode hex="007C"/>
  <outline>
    <contour>
      <point x="158" y="-208" type="line" smooth="yes"/>
      <point x="172" y="-208"/>
      <point x="182" y="-198"/>
      <point x="182" y="-184" type="curve" smooth="yes"/>
      <point x="182" y="872" type="line" smooth="yes"/>
      <point x="182" y="886"/>
      <point x="172" y="896"/>
      <point x="158" y="896" type="curve" smooth="yes"/>
      <point x="92" y="896" type="line"/>
      <point x="78" y="896"/>
      <point x="68" y="886"/>
      <point x="68" y="872" type="curve" smooth="yes"/>
      <point x="68" y="-184" type="line" smooth="yes"/>
      <point x="68" y="-198"/>
      <point x="78" y="-208"/>
      <point x="92" y="-208" type="curve" smooth="yes"/>
    </contour>
  </outline>
</glyph>
<glyph name="brokenbar" format="1">
  <advance width="255"/>
  <unicode hex="00A6"/>
  <outline>
    <contour>
      <point x="160" y="475" type="line" smooth="yes"/>
      <point x="174" y="475"/>
      <point x="184" y="485"/>
      <point x="184" y="499" type="curve" smooth="yes"/>
      <point x="184" y="805" type="line" smooth="yes"/>
      <point x="184" y="819"/>
      <point x="174" y="829"/>
      <point x="160" y="829" type="curve" smooth="yes"/>
      <point x="94" y="829" type="line"/>
      <point x="80" y="829"/>
      <point x="70" y="819"/>
      <point x="70" y="805" type="curve" smooth="yes"/>
      <point x="70" y="499" type="line" smooth="yes"/>
      <point x="70" y="485"/>
      <point x="80" y="475"/>
      <point x="94" y="475" type="curve" smooth="yes"/>
    </contour>
    <contour>
      <point x="160" y="0" type="line" smooth="yes"/>
      <point x="174" y="0"/>
      <point x="184" y="10"/>
      <point x="184" y="24" type="curve" smooth="yes"/>
      <point x="184" y="330" type="line" smooth="yes"/>
      <point x="184" y="344"/>
      <point x="174" y="354"/>
      <point x="160" y="354" type="curve" smooth="yes"/>
      <point x="94" y="354" type="line"/>
      <point x="80" y="354"/>
      <point x="70" y="344"/>
      <point x="70" y="330" type="curve" smooth="yes"/>
      <point x="70" y="24" type="line" smooth="yes"/>
      <point x="70" y="10"/>
      <point x="80" y="0"/>
      <point x="94" y="0" type="curve" smooth="yes"/>
    </contour>
  </outline>
</glyph>
<glyph name="copyright" format="1">
  <advance width="817"/>
  <unicode hex="00A9"/>
  <outline>
    <contour>
      <point x="607" y="-10"/>
      <point x="768" y="151"/>
      <point x="768" y="350" type="curve" smooth="yes"/>
      <point x="768" y="549"/>
      <point x="607" y="710"/>
      <point x="408" y="710" type="curve" smooth="yes"/>
      <point x="209" y="710"/>
      <point x="48" y="549"/>
      <point x="48" y="350" type="curve" smooth="yes"/>
      <point x="48" y="151"/>
      <point x="209" y="-10"/>
      <point x="408" y="-10" type="curve" smooth="yes"/>
    </contour>
    <contour>
      <point x="251" y="62"/>
      <point x="125" y="192"/>
      <point x="125" y="350" type="curve" smooth="yes"/>
      <point x="125" y="508"/>
      <point x="251" y="638"/>
      <point x="408" y="638" type="curve" smooth="yes"/>
      <point x="566" y="638"/>
      <point x="692" y="508"/>
      <point x="692" y="350" type="curve" smooth="yes"/>
      <point x="692" y="192"/>
      <point x="566" y="62"/>
      <point x="408" y="62" type="curve" smooth="yes"/>
    </contour>
    <contour>
      <point x="523" y="158"/>
      <point x="575" y="223"/>
      <point x="576" y="274" type="curve" smooth="yes"/>
      <point x="577" y="287"/>
      <point x="567" y="296"/>
      <point x="554" y="296" type="curve" smooth="yes"/>
      <point x="505" y="296" type="line" smooth="yes"/>
      <point x="490" y="296"/>
      <point x="484" y="286"/>
      <point x="480" y="276" type="curve" smooth="yes"/>
      <point x="469" y="249"/>
      <point x="450" y="236"/>
      <point x="408" y="236" type="curve" smooth="yes"/>
      <point x="349" y="236"/>
      <point x="336" y="281"/>
      <point x="334" y="317" type="curve" smooth="yes"/>
      <point x="333" y="333"/>
      <point x="333" y="369"/>
      <point x="334" y="385" type="curve" smooth="yes"/>
      <point x="336" y="421"/>
      <point x="349" y="466"/>
      <point x="408" y="466" type="curve" smooth="yes"/>
      <point x="450" y="466"/>
      <point x="469" y="453"/>
      <point x="480" y="426" type="curve" smooth="yes"/>
      <point x="484" y="417"/>
      <point x="490" y="406"/>
      <point x="505" y="406" type="curve" smooth="yes"/>
      <point x="554" y="406" type="line" smooth="yes"/>
      <point x="567" y="406"/>
      <point x="577" y="415"/>
      <point x="576" y="428" type="curve" smooth="yes"/>
      <point x="575" y="479"/>
      <point x="523" y="544"/>
      <point x="408" y="544" type="curve" smooth="yes"/>
      <point x="305" y="544"/>
      <point x="245" y="476"/>
      <point x="241" y="387" type="curve" smooth="yes"/>
      <point x="240" y="371"/>
      <point x="240" y="331"/>
      <point x="241" y="315" type="curve" smooth="yes"/>
      <point x="245" y="226"/>
      <point x="305" y="158"/>
      <point x="408" y="158" type="curve" smooth="yes"/>
    </contour>
  </outline>
</glyph>
<glyph name="registered" format="1">
  <advance width="817"/>
  <unicode hex="00AE"/>
  <outline>
    <contour>
      <point x="607" y="-10"/>
      <point x="768" y="151"/>
      <point x="768" y="350" type="curve" smooth="yes"/>
      <point x="768" y="549"/>
      <point x="607" y="710"/>
      <point x="408" y="710" type="curve" smooth="yes"/>
      <point x="209" y="710"/>
      <point x="48" y="549"/>
      <point x="48" y="350" type="curve" smooth="yes"/>
      <point x="48" y="151"/>
      <point x="209" y="-10"/>
      <point x="408" y="-10" type="curve" smooth="yes"/>
    </contour>
    <contour>
      <point x="251" y="62"/>
      <point x="125" y="192"/>
      <point x="125" y="350" type="curve" smooth="yes"/>
      <point x="125" y="508"/>
      <point x="251" y="638"/>
      <point x="408" y="638" type="curve" smooth="yes"/>
      <point x="566" y="638"/>
      <point x="692" y="508"/>
      <point x="692" y="350" type="curve" smooth="yes"/>
      <point x="692" y="192"/>
      <point x="566" y="62"/>
      <point x="408" y="62" type="curve" smooth="yes"/>
    </contour>
    <contour>
      <point x="334" y="168" type="line" smooth="yes"/>
      <point x="347" y="168"/>
      <point x="356" y="177"/>
      <point x="356" y="190" type="curve" smooth="yes"/>
      <point x="356" y="294" type="line"/>
      <point x="417" y="294" type="line"/>
      <point x="473" y="187" type="line"/>
      <point x="479" y="175"/>
      <point x="488" y="168"/>
      <point x="502" y="168" type="curve" smooth="yes"/>
      <point x="545" y="168" type="line" smooth="yes"/>
      <point x="560" y="168"/>
      <point x="567" y="179"/>
      <point x="567" y="190" type="curve"/>
      <point x="567" y="196"/>
      <point x="565" y="201"/>
      <point x="563" y="204" type="curve" smooth="yes"/>
      <point x="504" y="311" type="line"/>
      <point x="542" y="327"/>
      <point x="570" y="361"/>
      <point x="570" y="414" type="curve" smooth="yes"/>
      <point x="570" y="503"/>
      <point x="500" y="534"/>
      <point x="424" y="534" type="curve" smooth="yes"/>
      <point x="288" y="534" type="line" smooth="yes"/>
      <point x="275" y="534"/>
      <point x="266" y="525"/>
      <point x="266" y="512" type="curve" smooth="yes"/>
      <point x="266" y="190" type="line" smooth="yes"/>
      <point x="266" y="177"/>
      <point x="275" y="168"/>
      <point x="288" y="168" type="curve"/>
    </contour>
    <contour>
      <point x="356" y="460" type="line"/>
      <point x="422" y="460" type="line" smooth="yes"/>
      <point x="464" y="460"/>
      <point x="478" y="438"/>
      <point x="478" y="414" type="curve" smooth="yes"/>
      <point x="478" y="390"/>
      <point x="464" y="369"/>
      <point x="422" y="369" type="curve" smooth="yes"/>
      <point x="356" y="369" type="line"/>
    </contour>
  </outline>
</glyph>
<glyph name="macron" format="1">
  <advance width="421"/>
  <unicode hex="00AF"/>
  <outline>
    <contour>
      <point x="337" y="611" type="line" smooth="yes"/>
      <point x="350" y="611"/>
      <point x="359" y="620"/>
      <point x="359" y="633" type="curve" smooth="yes"/>
      <point x="359" y="685" type="line" smooth="yes"/>
      <point x="359" y="698"/>
      <point x="350" y="707"/>
      <point x="337" y="707" type="curve" smooth="yes"/>
      <point x="84" y="707" type="line" smooth="yes"/>
      <point x="71" y="707"/>
      <point x="62" y="698"/>
      <point x="62" y="685" type="curve" smooth="yes"/>
      <point x="62" y="633" type="line" smooth="yes"/>
      <point x="62" y="620"/>
      <point x="71" y="611"/>
      <point x="84" y="611" type="curve" smooth="yes"/>
    </contour>
  </outline>
</glyph>
<glyph name="plusminus" format="1">
  <advance width="564"/>
  <unicode hex="00B1"/>
  <outline>
    <contour>
      <point x="312" y="190" type="line" smooth="yes"/>
      <point x="326" y="190"/>
      <point x="336" y="200"/>
      <point x="336" y="214" type="curve" smooth="yes"/>
      <point x="336" y="365" type="line"/>
      <point x="483" y="365" type="line" smooth="yes"/>
      <point x="497" y="365"/>
      <point x="507" y="375"/>
      <point x="507" y="389" type="curve" smooth="yes"/>
      <point x="507" y="443" type="line" smooth="yes"/>
      <point x="507" y="457"/>
      <point x="497" y="467"/>
      <point x="483" y="467" type="curve" smooth="yes"/>
      <point x="336" y="467" type="line"/>
      <point x="336" y="613" type="line" smooth="yes"/>
      <point x="336" y="627"/>
      <point x="326" y="637"/>
      <point x="312" y="637" type="curve" smooth="yes"/>
      <point x="252" y="637" type="line" smooth="yes"/>
      <point x="238" y="637"/>
      <point x="228" y="627"/>
      <point x="228" y="613" type="curve" smooth="yes"/>
      <point x="228" y="467" type="line"/>
      <point x="80" y="467" type="line" smooth="yes"/>
      <point x="66" y="467"/>
      <point x="56" y="457"/>
      <point x="56" y="443" type="curve" smooth="yes"/>
      <point x="56" y="389" type="line" smooth="yes"/>
      <point x="56" y="375"/>
      <point x="66" y="365"/>
      <point x="80" y="365" type="curve" smooth="yes"/>
      <point x="228" y="365" type="line"/>
      <point x="228" y="214" type="line" smooth="yes"/>
      <point x="228" y="200"/>
      <point x="238" y="190"/>
      <point x="252" y="190" type="curve" smooth="yes"/>
    </contour>
    <contour>
      <point x="473" y="0" type="line" smooth="yes"/>
      <point x="487" y="0"/>
      <point x="497" y="10"/>
      <point x="497" y="24" type="curve" smooth="yes"/>
      <point x="497" y="78" type="line" smooth="yes"/>
      <point x="497" y="92"/>
      <point x="487" y="102"/>
      <point x="473" y="102" type="curve" smooth="yes"/>
      <point x="90" y="102" type="line" smooth="yes"/>
      <point x="76" y="102"/>
      <point x="66" y="92"/>
      <point x="66" y="78" type="curve" smooth="yes"/>
      <point x="66" y="24" type="line" smooth="yes"/>
      <point x="66" y="10"/>
      <point x="76" y="0"/>
      <point x="90" y="0" type="curve" smooth="yes"/>
    </contour>
  </outline>
</glyph>
<glyph name="acute" format="1">
  <advance width="369"/>
  <unicode hex="00B4"/>
  <outline>
    <contour>
      <point x="141" y="595" type="line" smooth="yes"/>
      <point x="157" y="595"/>
      <point x="166" y="599"/>
      <point x="177" y="608" type="curve" smooth="yes"/>
      <point x="301" y="710" type="line" smooth="yes"/>
      <point x="304" y="713"/>
      <point x="306" y="717"/>
      <point x="306" y="722" type="curve" smooth="yes"/>
      <point x="306" y="734"/>
      <point x="299" y="742"/>
      <point x="287" y="742" type="curve" smooth="yes"/>
      <point x="186" y="742" type="line" smooth="yes"/>
      <point x="168" y="742"/>
      <point x="162" y="738"/>
      <point x="149" y="723" type="curve"/>
      <point x="67" y="624" type="line" smooth="yes"/>
      <point x="64" y="621"/>
      <point x="62" y="616"/>
      <point x="62" y="611" type="curve" smooth="yes"/>
      <point x="62" y="601"/>
      <point x="68" y="595"/>
      <point x="78" y="595" type="curve" smooth="yes"/>
    </contour>
  </outline>
</glyph>
<glyph name="ccedilla" format="1">
  <advance width="572"/>
  <unicode hex="00E7"/>
  <outline>
    <contour>
      <point x="352" y="-221"/>
      <point x="386" y="-181"/>
      <point x="386" y="-131" type="curve" smooth="yes"/>
      <point x="386" y="-81"/>
      <point x="355" y="-46"/>
      <point x="308" y="-46" type="curve" smooth="yes"/>
      <point x="298" y="-46"/>
      <point x="282" y="-48"/>
      <point x="274" y="-53" type="curve"/>
      <point x="295" y="-10" type="line"/>
      <point x="466" y="-9"/>
      <point x="531" y="104"/>
      <point x="534" y="164" type="curve" smooth="yes"/>
      <point x="535" y="177"/>
      <point x="524" y="188"/>
      <point x="510" y="188" type="curve"/>
      <point x="421" y="188" type="line"/>
      <point x="407" y="188"/>
      <point x="400" y="181"/>
      <point x="395" y="167" type="curve" smooth="yes"/>
      <point x="375" y="115"/>
      <point x="345" y="95"/>
      <point x="294" y="95" type="curve" smooth="yes"/>
      <point x="228" y="95"/>
      <point x="187" y="134"/>
      <point x="184" y="225" type="curve" smooth="yes"/>
      <point x="183" y="244"/>
      <point x="183" y="271"/>
      <point x="184" y="295" type="curve" smooth="yes"/>
      <point x="186" y="385"/>
      <point x="228" y="425"/>
      <point x="294" y="425" type="curve" smooth="yes"/>
      <point x="343" y="425"/>
      <point x="375" y="405"/>
      <point x="395" y="353" type="curve" smooth="yes"/>
      <point x="401" y="339"/>
      <point x="407" y="332"/>
      <point x="421" y="332" type="curve"/>
      <point x="510" y="332" type="line"/>
      <point x="524" y="332"/>
      <point x="535" y="343"/>
      <point x="534" y="356" type="curve" smooth="yes"/>
      <point x="531" y="421"/>
      <point x="462" y="530"/>
      <point x="292" y="530" type="curve" smooth="yes"/>
      <point x="146" y="530"/>
      <point x="51" y="445"/>
      <point x="46" y="300" type="curve" smooth="yes"/>
      <point x="45" y="279"/>
      <point x="45" y="240"/>
      <point x="46" y="220" type="curve" smooth="yes"/>
      <point x="51" y="93"/>
      <point x="123" y="13"/>
      <point x="237" y="-5" type="curve"/>
      <point x="217" y="-53" type="line"/>
      <point x="211" y="-66"/>
      <point x="207" y="-75"/>
      <point x="215" y="-84" type="curve"/>
      <point x="233" y="-103" type="line"/>
      <point x="247" y="-117"/>
      <point x="264" y="-100"/>
      <point x="290" y="-100" type="curve" smooth="yes"/>
      <point x="312" y="-100"/>
      <point x="327" y="-113"/>
      <point x="327" y="-132" type="curve" smooth="yes"/>
      <point x="327" y="-152"/>
      <point x="312" y="-166"/>
      <point x="290" y="-166" type="curve" smooth="yes"/>
      <point x="250" y="-166"/>
      <point x="244" y="-138"/>
      <point x="227" y="-154" type="curve"/>
      <point x="210" y="-169" type="line"/>
      <point x="191" y="-186"/>
      <point x="235" y="-219"/>
      <point x="290" y="-220" type="curve" smooth="yes"/>
    </contour>
  </outline>
</glyph>
<glyph name="dcroat" format="1">
  <advance width="614"/>
  <unicode hex="0111"/>
  <outline>
    <contour>
      <point x="336" y="-10"/>
      <point x="387" y="22"/>
      <point x="419" y="64" type="curve"/>
      <point x="419" y="24" type="line" smooth="yes"/>
      <point x="419" y="10"/>
      <point x="429" y="0"/>
      <point x="443" y="0" type="curve" smooth="yes"/>
      <point x="524" y="0" type="line" smooth="yes"/>
      <point x="538" y="0"/>
      <point x="548" y="10"/>
      <point x="548" y="24" type="curve" smooth="yes"/>
      <point x="548" y="561" type="line"/>
      <point x="594" y="561" type="line" smooth="yes"/>
      <point x="608" y="561"/>
      <point x="618" y="572"/>
      <point x="618" y="586" type="curve" smooth="yes"/>
      <point x="618" y="615" type="line" smooth="yes"/>
      <point x="618" y="629"/>
      <point x="608" y="639"/>
      <point x="594" y="639" type="curve" smooth="yes"/>
      <point x="548" y="639" type="line"/>
      <point x="548" y="686" type="line" smooth="yes"/>
      <point x="548" y="700"/>
      <point x="538" y="710"/>
      <point x="524" y="710" type="curve" smooth="yes"/>
      <point x="437" y="710" type="line" smooth="yes"/>
      <point x="423" y="710"/>
      <point x="413" y="700"/>
      <point x="413" y="686" type="curve" smooth="yes"/>
      <point x="413" y="639" type="line"/>
      <point x="366" y="639" type="line" smooth="yes"/>
      <point x="352" y="639"/>
      <point x="342" y="629"/>
      <point x="342" y="615" type="curve" smooth="yes"/>
      <point x="342" y="586" type="line" smooth="yes"/>
      <point x="342" y="572"/>
      <point x="352" y="561"/>
      <point x="366" y="561" type="curve" smooth="yes"/>
      <point x="413" y="561" type="line"/>
      <point x="413" y="464" type="line"/>
      <point x="380" y="502"/>
      <point x="331" y="530"/>
      <point x="259" y="530" type="curve" smooth="yes"/>
      <point x="108" y="530"/>
      <point x="50" y="415"/>
      <point x="46" y="293" type="curve" smooth="yes"/>
      <point x="45" y="269"/>
      <point x="45" y="252"/>
      <point x="46" y="227" type="curve" smooth="yes"/>
      <point x="51" y="101"/>
      <point x="108" y="-10"/>
      <point x="259" y="-10" type="curve" smooth="yes"/>
    </contour>
    <contour>
      <point x="213" y="98"/>
      <point x="187" y="159"/>
      <point x="183" y="230" type="curve" smooth="yes"/>
      <point x="182" y="250"/>
      <point x="182" y="270"/>
      <point x="183" y="290" type="curve" smooth="yes"/>
      <point x="187" y="361"/>
      <point x="213" y="422"/>
      <point x="297" y="422" type="curve" smooth="yes"/>
      <point x="376" y="422"/>
      <point x="410" y="362"/>
      <point x="412" y="302" type="curve" smooth="yes"/>
      <point x="414" y="277"/>
      <point x="414" y="249"/>
      <point x="412" y="225" type="curve" smooth="yes"/>
      <point x="410" y="162"/>
      <point x="379" y="98"/>
      <point x="297" y="98" type="curve" smooth="yes"/>
    </contour>
  </outline>
</glyph>
<glyph name="Lslash" format="1">
  <advance width="589"/>
  <unicode hex="0141"/>
  <outline>
    <contour>
      <point x="545" y="0" type="line" smooth="yes"/>
      <point x="559" y="0"/>
      <point x="569" y="10"/>
      <point x="569" y="24" type="curve" smooth="yes"/>
      <point x="569" y="96" type="line" smooth="yes"/>
      <point x="569" y="110"/>
      <point x="559" y="120"/>
      <point x="545" y="120" type="curve" smooth="yes"/>
      <point x="228" y="120" type="line"/>
      <point x="228" y="320" type="line"/>
      <point x="383" y="381" type="line" smooth="yes"/>
      <point x="399" y="387"/>
      <point x="405" y="393"/>
      <point x="405" y="409" type="curve" smooth="yes"/>
      <point x="405" y="465" type="line" smooth="yes"/>
      <point x="405" y="477"/>
      <point x="397" y="484"/>
      <point x="385" y="484" type="curve" smooth="yes"/>
      <point x="382" y="484"/>
      <point x="378" y="483"/>
      <point x="373" y="481" type="curve" smooth="yes"/>
      <point x="228" y="425" type="line"/>
      <point x="228" y="676" type="line" smooth="yes"/>
      <point x="228" y="690"/>
      <point x="218" y="700"/>
      <point x="204" y="700" type="curve" smooth="yes"/>
      <point x="109" y="700" type="line" smooth="yes"/>
      <point x="96" y="700"/>
      <point x="85" y="690"/>
      <point x="85" y="676" type="curve" smooth="yes"/>
      <point x="85" y="369" type="line"/>
      <point x="34" y="349" type="line" smooth="yes"/>
      <point x="18" y="343"/>
      <point x="12" y="337"/>
      <point x="12" y="321" type="curve" smooth="yes"/>
      <point x="12" y="265" type="line" smooth="yes"/>
      <point x="12" y="253"/>
      <point x="20" y="245"/>
      <point x="32" y="245" type="curve" smooth="yes"/>
      <point x="35" y="245"/>
      <point x="39" y="246"/>
      <point x="44" y="248" type="curve" smooth="yes"/>
      <point x="85" y="264" type="line"/>
      <point x="85" y="24" type="line" smooth="yes"/>
      <point x="85" y="10"/>
      <point x="96" y="0"/>
      <point x="109" y="0" type="curve" smooth="yes"/>
    </contour>
  </outline>
</glyph>
<glyph name="Tbar" format="1">
  <advance width="615"/>
  <unicode hex="0166"/>
  <outline>
    <contour>
      <point x="354" y="0" type="line" smooth="yes"/>
      <point x="368" y="0"/>
      <point x="378" y="10"/>
      <point x="378" y="24" type="curve" smooth="yes"/>
      <point x="378" y="312" type="line"/>
      <point x="484" y="312" type="line" smooth="yes"/>
      <point x="499" y="312"/>
      <point x="509" y="322"/>
      <point x="509" y="336" type="curve" smooth="yes"/>
      <point x="509" y="374" type="line" smooth="yes"/>
      <point x="509" y="389"/>
      <point x="499" y="399"/>
      <point x="484" y="399" type="curve" smooth="yes"/>
      <point x="378" y="399" type="line"/>
      <point x="378" y="575" type="line"/>
      <point x="562" y="575" type="line" smooth="yes"/>
      <point x="577" y="575"/>
      <point x="587" y="586"/>
      <point x="587" y="600" type="curve" smooth="yes"/>
      <point x="587" y="675" type="line" smooth="yes"/>
      <point x="587" y="690"/>
      <point x="577" y="700"/>
      <point x="562" y="700" type="curve" smooth="yes"/>
      <point x="51" y="700" type="line" smooth="yes"/>
      <point x="37" y="700"/>
      <point x="27" y="690"/>
      <point x="27" y="675" type="curve" smooth="yes"/>
      <point x="27" y="600" type="line" smooth="yes"/>
      <point x="27" y="586"/>
      <point x="37" y="575"/>
      <point x="51" y="575" type="curve" smooth="yes"/>
      <point x="236" y="575" type="line"/>
      <point x="236" y="399" type="line"/>
      <point x="129" y="399" type="line" smooth="yes"/>
      <point x="116" y="399"/>
      <point x="105" y="389"/>
      <point x="105" y="374" type="curve" smooth="yes"/>
      <point x="105" y="336" type="line" smooth="yes"/>
      <point x="105" y="322"/>
      <point x="116" y="312"/>
      <point x="129" y="312" type="curve" smooth="yes"/>
      <point x="236" y="312" type="line"/>
      <point x="236" y="24" type="line" smooth="yes"/>
      <point x="236" y="10"/>
      <point x="246" y="0"/>
      <point x="260" y="0" type="curve" smooth="yes"/>
    </contour>
  </outline>
</glyph>
<glyph name="caron" format="1">
  <advance width="460"/>
  <unicode hex="02C7"/>
  <outline>
    <contour>
      <point x="258" y="595" type="line" smooth="yes"/>
      <point x="271" y="595"/>
      <point x="279" y="597"/>
      <point x="293" y="611" type="curve" smooth="yes"/>
      <point x="390" y="712" type="line" smooth="yes"/>
      <point x="396" y="717"/>
      <point x="399" y="723"/>
      <point x="399" y="729" type="curve" smooth="yes"/>
      <point x="399" y="737"/>
      <point x="394" y="742"/>
      <point x="384" y="742" type="curve" smooth="yes"/>
      <point x="347" y="742" type="line" smooth="yes"/>
      <point x="337" y="742"/>
      <point x="324" y="740"/>
      <point x="316" y="735" type="curve" smooth="yes"/>
      <point x="231" y="682" type="line"/>
      <point x="146" y="735" type="line" smooth="yes"/>
      <point x="137" y="740"/>
      <point x="124" y="742"/>
      <point x="114" y="742" type="curve" smooth="yes"/>
      <point x="77" y="742" type="line" smooth="yes"/>
      <point x="67" y="742"/>
      <point x="62" y="737"/>
      <point x="62" y="729" type="curve" smooth="yes"/>
      <point x="62" y="723"/>
      <point x="65" y="717"/>
      <point x="71" y="712" type="curve" smooth="yes"/>
      <point x="169" y="611" type="line" smooth="yes"/>
      <point x="182" y="597"/>
      <point x="191" y="595"/>
      <point x="203" y="595" type="curve" smooth="yes"/>
    </contour>
  </outline>
</glyph>
<glyph name="dotaccent" format="1">
  <advance width="251"/>
  <unicode hex="02D9"/>
  <outline>
    <contour>
      <point x="167" y="608" type="line" smooth="yes"/>
      <point x="180" y="608"/>
      <point x="190" y="617"/>
      <point x="190" y="630" type="curve" smooth="yes"/>
      <point x="190" y="713" type="line" smooth="yes"/>
      <point x="190" y="726"/>
      <point x="180" y="736"/>
      <point x="167" y="736" type="curve" smooth="yes"/>
      <point x="84" y="736" type="line" smooth="yes"/>
      <point x="71" y="736"/>
      <point x="62" y="726"/>
      <point x="62" y="713" type="curve" smooth="yes"/>
      <point x="62" y="630" type="line" smooth="yes"/>
      <point x="62" y="617"/>
      <point x="71" y="608"/>
      <point x="84" y="608" type="curve" smooth="yes"/>
    </contour>
  </outline>
</glyph>
<glyph name="Nje-cy" format="1">
  <advance width="993"/>
  <unicode hex="040A"/>
  <outline>
    <contour>
      <point x="194" y="0" type="line" smooth="yes"/>
      <point x="209" y="0"/>
      <point x="219" y="10"/>
      <point x="219" y="24" type="curve" smooth="yes"/>
      <point x="219" y="291" type="line"/>
      <point x="434" y="291" type="line"/>
      <point x="434" y="24" type="line" smooth="yes"/>
      <point x="434" y="10"/>
      <point x="444" y="0"/>
      <point x="458" y="0" type="curve" smooth="yes"/>
      <point x="713" y="0" type="line" smooth="yes"/>
      <point x="876" y="0"/>
      <point x="963" y="100"/>
      <point x="963" y="221" type="curve" smooth="yes"/>
      <point x="963" y="360"/>
      <point x="869" y="436"/>
      <point x="713" y="436" type="curve" smooth="yes"/>
      <point x="579" y="436" type="line"/>
      <point x="579" y="675" type="line" smooth="yes"/>
      <point x="579" y="690"/>
      <point x="569" y="700"/>
      <point x="554" y="700" type="curve" smooth="yes"/>
      <point x="458" y="700" type="line" smooth="yes"/>
      <point x="444" y="700"/>
      <point x="434" y="690"/>
      <point x="434" y="675" type="curve" smooth="yes"/>
      <point x="434" y="418" type="line"/>
      <point x="219" y="418" type="line"/>
      <point x="219" y="675" type="line" smooth="yes"/>
      <point x="219" y="690"/>
      <point x="209" y="700"/>
      <point x="194" y="700" type="curve" smooth="yes"/>
      <point x="102" y="700" type="line" smooth="yes"/>
      <point x="88" y="700"/>
      <point x="78" y="690"/>
      <point x="78" y="675" type="curve" smooth="yes"/>
      <point x="78" y="24" type="line" smooth="yes"/>
      <point x="78" y="10"/>
      <point x="88" y="0"/>
      <point x="102" y="0" type="curve" smooth="yes"/>
    </contour>
    <contour>
      <point x="577" y="324" type="line"/>
      <point x="707" y="324" type="line" smooth="yes"/>
      <point x="778" y="324"/>
      <point x="818" y="286"/>
      <point x="818" y="222" type="curve" smooth="yes"/>
      <point x="818" y="165"/>
      <point x="780" y="113"/>
      <point x="707" y="113" type="curve" smooth="yes"/>
      <point x="577" y="113" type="line"/>
    </contour>
  </outline>
</glyph>
<glyph name="Tshe-cy" format="1">
  <advance width="731"/>
  <unicode hex="040B"/>
  <outline>
    <contour>
      <point x="279" y="0" type="line" smooth="yes"/>
      <point x="293" y="0"/>
      <point x="304" y="10"/>
      <point x="304" y="24" type="curve" smooth="yes"/>
      <point x="304" y="379" type="line"/>
      <point x="437" y="379" type="line" smooth="yes"/>
      <point x="517" y="379"/>
      <point x="547" y="350"/>
      <point x="547" y="266" type="curve" smooth="yes"/>
      <point x="547" y="24" type="line" smooth="yes"/>
      <point x="547" y="10"/>
      <point x="558" y="0"/>
      <point x="572" y="0" type="curve" smooth="yes"/>
      <point x="660" y="0" type="line" smooth="yes"/>
      <point x="674" y="0"/>
      <point x="684" y="10"/>
      <point x="684" y="24" type="curve" smooth="yes"/>
      <point x="684" y="272" type="line" smooth="yes"/>
      <point x="684" y="428"/>
      <point x="606" y="498"/>
      <point x="443" y="498" type="curve" smooth="yes"/>
      <point x="304" y="498" type="line"/>
      <point x="304" y="591" type="line"/>
      <point x="439" y="591" type="line" smooth="yes"/>
      <point x="453" y="591"/>
      <point x="462" y="601"/>
      <point x="462" y="614" type="curve" smooth="yes"/>
      <point x="462" y="677" type="line" smooth="yes"/>
      <point x="462" y="691"/>
      <point x="453" y="700"/>
      <point x="439" y="700" type="curve" smooth="yes"/>
      <point x="41" y="700" type="line" smooth="yes"/>
      <point x="28" y="700"/>
      <point x="19" y="691"/>
      <point x="19" y="677" type="curve" smooth="yes"/>
      <point x="19" y="614" type="line" smooth="yes"/>
      <point x="19" y="601"/>
      <point x="28" y="591"/>
      <point x="41" y="591" type="curve" smooth="yes"/>
      <point x="167" y="591" type="line"/>
      <point x="167" y="24" type="line" smooth="yes"/>
      <point x="167" y="10"/>
      <point x="178" y="0"/>
      <point x="191" y="0" type="curve" smooth="yes"/>
    </contour>
  </outline>
</glyph>
<glyph name="Dzhe-cy" format="1">
  <advance width="678"/>
  <unicode hex="040F"/>
  <outline>
    <contour>
      <point x="374" y="-115" type="line" smooth="yes"/>
      <point x="389" y="-115"/>
      <point x="399" y="-105"/>
      <point x="399" y="-91" type="curve" smooth="yes"/>
      <point x="399" y="0" type="line"/>
      <point x="576" y="0" type="line" smooth="yes"/>
      <point x="590" y="0"/>
      <point x="600" y="10"/>
      <point x="600" y="24" type="curve" smooth="yes"/>
      <point x="600" y="676" type="line" smooth="yes"/>
      <point x="600" y="690"/>
      <point x="590" y="700"/>
      <point x="576" y="700" type="curve" smooth="yes"/>
      <point x="485" y="700" type="line" smooth="yes"/>
      <point x="471" y="700"/>
      <point x="461" y="690"/>
      <point x="461" y="676" type="curve" smooth="yes"/>
      <point x="461" y="127" type="line"/>
      <point x="219" y="127" type="line"/>
      <point x="219" y="676" type="line" smooth="yes"/>
      <point x="219" y="690"/>
      <point x="209" y="700"/>
      <point x="194" y="700" type="curve" smooth="yes"/>
      <point x="102" y="700" type="line" smooth="yes"/>
      <point x="88" y="700"/>
      <point x="78" y="690"/>
      <point x="78" y="676" type="curve" smooth="yes"/>
      <point x="78" y="24" type="line" smooth="yes"/>
      <point x="78" y="10"/>
      <point x="88" y="0"/>
      <point x="102" y="0" type="curve" smooth="yes"/>
      <point x="278" y="0" type="line"/>
      <point x="278" y="-91" type="line" smooth="yes"/>
      <point x="278" y="-105"/>
      <point x="289" y="-115"/>
      <point x="303" y="-115" type="curve" smooth="yes"/>
    </contour>
  </outline>
</glyph>
<glyph name="Be-cy" format="1">
  <advance width="649"/>
  <unicode hex="0411"/>
  <outline>
    <contour>
      <point x="376" y="0" type="line" smooth="yes"/>
      <point x="536" y="0"/>
      <point x="618" y="103"/>
      <point x="618" y="214" type="curve" smooth="yes"/>
      <point x="618" y="343"/>
      <point x="526" y="421"/>
      <point x="376" y="421" type="curve" smooth="yes"/>
      <point x="219" y="421" type="line"/>
      <point x="219" y="584" type="line"/>
      <point x="527" y="584" type="line" smooth="yes"/>
      <point x="541" y="584"/>
      <point x="552" y="594"/>
      <point x="552" y="608" type="curve" smooth="yes"/>
      <point x="552" y="675" type="line" smooth="yes"/>
      <point x="552" y="690"/>
      <point x="541" y="700"/>
      <point x="527" y="700" type="curve" smooth="yes"/>
      <point x="102" y="700" type="line"/>
      <point x="88" y="700"/>
      <point x="78" y="690"/>
      <point x="78" y="675" type="curve" smooth="yes"/>
      <point x="78" y="24" type="line" smooth="yes"/>
      <point x="78" y="10"/>
      <point x="88" y="0"/>
      <point x="102" y="0" type="curve" smooth="yes"/>
    </contour>
    <contour>
      <point x="219" y="317" type="line"/>
      <point x="370" y="317" type="line" smooth="yes"/>
      <point x="444" y="317"/>
      <point x="480" y="273"/>
      <point x="480" y="216" type="curve" smooth="yes"/>
      <point x="480" y="160"/>
      <point x="441" y="107"/>
      <point x="370" y="107" type="curve" smooth="yes"/>
      <point x="219" y="107" type="line"/>
    </contour>
  </outline>
</glyph>
<glyph name="Pe-cy" format="1">
  <advance width="730"/>
  <unicode hex="041F"/>
  <outline>
    <contour>
      <point x="194" y="0" type="line" smooth="yes"/>
      <point x="209" y="0"/>
      <point x="219" y="10"/>
      <point x="219" y="24" type="curve" smooth="yes"/>
      <point x="219" y="573" type="line"/>
      <point x="512" y="573" type="line"/>
      <point x="512" y="24" type="line" smooth="yes"/>
      <point x="512" y="10"/>
      <point x="522" y="0"/>
      <point x="536" y="0" type="curve" smooth="yes"/>
      <point x="628" y="0" type="line" smooth="yes"/>
      <point x="642" y="0"/>
      <point x="653" y="10"/>
      <point x="653" y="24" type="curve" smooth="yes"/>
      <point x="653" y="675" type="line" smooth="yes"/>
      <point x="653" y="690"/>
      <point x="642" y="700"/>
      <point x="628" y="700" type="curve" smooth="yes"/>
      <point x="102" y="700" type="line" smooth="yes"/>
      <point x="88" y="700"/>
      <point x="78" y="690"/>
      <point x="78" y="675" type="curve" smooth="yes"/>
      <point x="78" y="24" type="line" smooth="yes"/>
      <point x="78" y="10"/>
      <point x="88" y="0"/>
      <point x="102" y="0" type="curve" smooth="yes"/>
    </contour>
  </outline>
</glyph>
<glyph name="Softsign-cy" format="1">
  <advance width="660"/>
  <unicode hex="042C"/>
  <outline>
    <contour>
      <point x="380" y="0" type="line" smooth="yes"/>
      <point x="543" y="0"/>
      <point x="630" y="100"/>
      <point x="630" y="221" type="curve" smooth="yes"/>
      <point x="630" y="360"/>
      <point x="536" y="436"/>
      <point x="380" y="436" type="curve" smooth="yes"/>
      <point x="223" y="436" type="line"/>
      <point x="223" y="676" type="line" smooth="yes"/>
      <point x="223" y="690"/>
      <point x="213" y="700"/>
      <point x="198" y="700" type="curve" smooth="yes"/>
      <point x="102" y="700" type="line" smooth="yes"/>
      <point x="88" y="700"/>
      <point x="78" y="690"/>
      <point x="78" y="676" type="curve" smooth="yes"/>
      <point x="78" y="24" type="line" smooth="yes"/>
      <point x="78" y="10"/>
      <point x="88" y="0"/>
      <point x="102" y="0" type="curve"/>
    </contour>
    <contour>
      <point x="221" y="324" type="line"/>
      <point x="374" y="324" type="line" smooth="yes"/>
      <point x="446" y="324"/>
      <point x="485" y="286"/>
      <point x="485" y="222" type="curve" smooth="yes"/>
      <point x="485" y="165"/>
      <point x="447" y="113"/>
      <point x="374" y="113" type="curve" smooth="yes"/>
      <point x="221" y="113" type="line"/>
    </contour>
  </outline>
</glyph>
<glyph name="de-cy" format="1">
  <advance width="584"/>
  <unicode hex="0434"/>
  <outline>
    <contour>
      <point x="111" y="-110" type="line" smooth="yes"/>
      <point x="125" y="-110"/>
      <point x="135" y="-100"/>
      <point x="135" y="-86" type="curve" smooth="yes"/>
      <point x="135" y="0" type="line"/>
      <point x="430" y="0" type="line"/>
      <point x="430" y="-86" type="line" smooth="yes"/>
      <point x="430" y="-100"/>
      <point x="440" y="-110"/>
      <point x="454" y="-110" type="curve" smooth="yes"/>
      <point x="520" y="-110" type="line"/>
      <point x="533" y="-110"/>
      <point x="544" y="-100"/>
      <point x="544" y="-86" type="curve" smooth="yes"/>
      <point x="544" y="80" type="line" smooth="yes"/>
      <point x="544" y="94"/>
      <point x="533" y="104"/>
      <point x="520" y="104" type="curve" smooth="yes"/>
      <point x="492" y="104" type="line"/>
      <point x="492" y="496" type="line" smooth="yes"/>
      <point x="492" y="510"/>
      <point x="481" y="520"/>
      <point x="468" y="520" type="curve" smooth="yes"/>
      <point x="142" y="520" type="line" smooth="yes"/>
      <point x="128" y="520"/>
      <point x="118" y="510"/>
      <point x="118" y="496" type="curve" smooth="yes"/>
      <point x="118" y="177" type="line" smooth="yes"/>
      <point x="118" y="123"/>
      <point x="103" y="103"/>
      <point x="68" y="103" type="curve" smooth="yes"/>
      <point x="45" y="103" type="line" smooth="yes"/>
      <point x="31" y="103"/>
      <point x="21" y="92"/>
      <point x="21" y="79" type="curve" smooth="yes"/>
      <point x="21" y="-86" type="line" smooth="yes"/>
      <point x="21" y="-100"/>
      <point x="31" y="-110"/>
      <point x="45" y="-110" type="curve" smooth="yes"/>
    </contour>
    <contour>
      <point x="228" y="111"/>
      <point x="239" y="130"/>
      <point x="239" y="165" type="curve" smooth="yes"/>
      <point x="239" y="417" type="line"/>
      <point x="369" y="417" type="line"/>
      <point x="369" y="105" type="line"/>
      <point x="227" y="105" type="line"/>
    </contour>
  </outline>
</glyph>
<glyph name="ii-cy" format="1">
  <advance width="624"/>
  <unicode hex="0438"/>
  <outline>
    <contour>
      <point x="174" y="0" type="line" smooth="yes"/>
      <point x="186" y="0"/>
      <point x="194" y="6"/>
      <point x="199" y="13" type="curve" smooth="yes"/>
      <point x="425" y="321" type="line"/>
      <point x="425" y="24" type="line" smooth="yes"/>
      <point x="425" y="10"/>
      <point x="436" y="0"/>
      <point x="449" y="0" type="curve" smooth="yes"/>
      <point x="534" y="0" type="line" smooth="yes"/>
      <point x="548" y="0"/>
      <point x="558" y="10"/>
      <point x="558" y="24" type="curve" smooth="yes"/>
      <point x="558" y="498" type="line" smooth="yes"/>
      <point x="558" y="510"/>
      <point x="547" y="520"/>
      <point x="535" y="520" type="curve" smooth="yes"/>
      <point x="449" y="520" type="line" smooth="yes"/>
      <point x="438" y="520"/>
      <point x="430" y="514"/>
      <point x="425" y="506" type="curve" smooth="yes"/>
      <point x="199" y="199" type="line"/>
      <point x="199" y="496" type="line" smooth="yes"/>
      <point x="199" y="510"/>
      <point x="188" y="520"/>
      <point x="175" y="520" type="curve" smooth="yes"/>
      <point x="90" y="520" type="line" smooth="yes"/>
      <point x="76" y="520"/>
      <point x="66" y="510"/>
      <point x="66" y="496" type="curve" smooth="yes"/>
      <point x="66" y="23" type="line" smooth="yes"/>
      <point x="66" y="10"/>
      <point x="76" y="0"/>
      <point x="89" y="0" type="curve" smooth="yes"/>
    </contour>
  </outline>
</glyph>
<glyph name="em-cy" format="1">
  <advance width="689"/>
  <unicode hex="043C"/>
  <outline>
    <contour>
      <point x="175" y="0" type="line" smooth="yes"/>
      <point x="188" y="0"/>
      <point x="197" y="9"/>
      <point x="197" y="21" type="curve" smooth="yes"/>
      <point x="197" y="301" type="line"/>
      <point x="296" y="109" type="line" smooth="yes"/>
      <point x="303" y="98"/>
      <point x="310" y="85"/>
      <point x="328" y="85" type="curve" smooth="yes"/>
      <point x="361" y="85" type="line" smooth="yes"/>
      <point x="379" y="85"/>
      <point x="386" y="98"/>
      <point x="392" y="109" type="curve" smooth="yes"/>
      <point x="492" y="301" type="line"/>
      <point x="492" y="21" type="line" smooth="yes"/>
      <point x="492" y="9"/>
      <point x="501" y="0"/>
      <point x="514" y="0" type="curve" smooth="yes"/>
      <point x="602" y="0" type="line" smooth="yes"/>
      <point x="614" y="0"/>
      <point x="623" y="9"/>
      <point x="623" y="21" type="curve" smooth="yes"/>
      <point x="623" y="501" type="line" smooth="yes"/>
      <point x="623" y="511"/>
      <point x="614" y="520"/>
      <point x="603" y="520" type="curve" smooth="yes"/>
      <point x="518" y="520" type="line" smooth="yes"/>
      <point x="504" y="520"/>
      <point x="496" y="510"/>
      <point x="492" y="503" type="curve" smooth="yes"/>
      <point x="345" y="225" type="line"/>
      <point x="197" y="503" type="line" smooth="yes"/>
      <point x="193" y="510"/>
      <point x="185" y="520"/>
      <point x="171" y="520" type="curve" smooth="yes"/>
      <point x="86" y="520" type="line" smooth="yes"/>
      <point x="76" y="520"/>
      <point x="66" y="511"/>
      <point x="66" y="501" type="curve" smooth="yes"/>
      <point x="66" y="21" type="line" smooth="yes"/>
      <point x="66" y="9"/>
      <point x="75" y="0"/>
      <point x="87" y="0" type="curve" smooth="yes"/>
    </contour>
  </outline>
</glyph>
<glyph name="tse-cy" format="1">
  <advance width="641"/>
  <unicode hex="0446"/>
  <outline>
    <contour>
      <point x="580" y="-110" type="line" smooth="yes"/>
      <point x="593" y="-110"/>
      <point x="604" y="-100"/>
      <point x="604" y="-86" type="curve" smooth="yes"/>
      <point x="604" y="83" type="line" smooth="yes"/>
      <point x="604" y="97"/>
      <point x="593" y="107"/>
      <point x="580" y="107" type="curve" smooth="yes"/>
      <point x="541" y="107" type="line"/>
      <point x="541" y="496" type="line" smooth="yes"/>
      <point x="541" y="510"/>
      <point x="531" y="520"/>
      <point x="517" y="520" type="curve" smooth="yes"/>
      <point x="437" y="520" type="line" smooth="yes"/>
      <point x="423" y="520"/>
      <point x="413" y="510"/>
      <point x="413" y="496" type="curve" smooth="yes"/>
      <point x="413" y="107" type="line"/>
      <point x="195" y="107" type="line"/>
      <point x="195" y="496" type="line" smooth="yes"/>
      <point x="195" y="510"/>
      <point x="184" y="520"/>
      <point x="170" y="520" type="curve" smooth="yes"/>
      <point x="90" y="520" type="line" smooth="yes"/>
      <point x="76" y="520"/>
      <point x="66" y="510"/>
      <point x="66" y="496" type="curve" smooth="yes"/>
      <point x="66" y="24" type="line" smooth="yes"/>
      <point x="66" y="10"/>
      <point x="76" y="0"/>
      <point x="90" y="0" type="curve" smooth="yes"/>
      <point x="492" y="0" type="line"/>
      <point x="492" y="-86" type="line" smooth="yes"/>
      <point x="492" y="-100"/>
      <point x="502" y="-110"/>
      <point x="516" y="-110" type="curve" smooth="yes"/>
    </contour>
  </outline>
</glyph>
<glyph name="softsign-cy" format="1">
  <advance width="556"/>
  <unicode hex="044C"/>
  <outline>
    <contour>
      <point x="289" y="0" type="line" smooth="yes"/>
      <point x="451" y="0"/>
      <point x="526" y="83"/>
      <point x="526" y="197" type="curve" smooth="yes"/>
      <point x="526" y="315"/>
      <point x="439" y="400"/>
      <point x="298" y="400" type="curve" smooth="yes"/>
      <point x="202" y="400" type="line"/>
      <point x="202" y="496" type="line" smooth="yes"/>
      <point x="202" y="510"/>
      <point x="191" y="520"/>
      <point x="178" y="520" type="curve" smooth="yes"/>
      <point x="90" y="520" type="line" smooth="yes"/>
      <point x="76" y="520"/>
      <point x="66" y="510"/>
      <point x="66" y="496" type="curve" smooth="yes"/>
      <point x="66" y="24" type="line" smooth="yes"/>
      <point x="66" y="10"/>
      <point x="77" y="0"/>
      <point x="91" y="0" type="curve" smooth="yes"/>
    </contour>
    <contour>
      <point x="199" y="294" type="line"/>
      <point x="294" y="294" type="line" smooth="yes"/>
      <point x="369" y="294"/>
      <point x="401" y="254"/>
      <point x="401" y="199" type="curve" smooth="yes"/>
      <point x="401" y="145"/>
      <point x="370" y="108"/>
      <point x="294" y="108" type="curve" smooth="yes"/>
      <point x="199" y="108" type="line"/>
    </contour>
  </outline>
</glyph>
<glyph name="dje-cy" format="1">
  <advance width="643"/>
  <unicode hex="0452"/>
  <outline>
    <contour>
      <point x="367" y="-225" type="line" smooth="yes"/>
      <point x="514" y="-225"/>
      <point x="582" y="-149"/>
      <point x="582" y="-15" type="curve" smooth="yes"/>
      <point x="582" y="296" type="line" smooth="yes"/>
      <point x="582" y="436"/>
      <point x="500" y="522"/>
      <point x="379" y="522" type="curve" smooth="yes"/>
      <point x="303" y="522"/>
      <point x="251" y="493"/>
      <point x="215" y="450" type="curve"/>
      <point x="215" y="549" type="line"/>
      <point x="279" y="549" type="line" smooth="yes"/>
      <point x="292" y="549"/>
      <point x="301" y="559"/>
      <point x="301" y="572" type="curve" smooth="yes"/>
      <point x="301" y="618" type="line" smooth="yes"/>
      <point x="301" y="631"/>
      <point x="292" y="640"/>
      <point x="279" y="640" type="curve" smooth="yes"/>
      <point x="215" y="640" type="line"/>
      <point x="215" y="686" type="line" smooth="yes"/>
      <point x="215" y="700"/>
      <point x="205" y="710"/>
      <point x="191" y="710" type="curve" smooth="yes"/>
      <point x="104" y="710" type="line" smooth="yes"/>
      <point x="90" y="710"/>
      <point x="80" y="700"/>
      <point x="80" y="686" type="curve" smooth="yes"/>
      <point x="80" y="640" type="line"/>
      <point x="18" y="640" type="line" smooth="yes"/>
      <point x="5" y="640"/>
      <point x="-4" y="631"/>
      <point x="-4" y="618" type="curve" smooth="yes"/>
      <point x="-4" y="572" type="line" smooth="yes"/>
      <point x="-4" y="559"/>
      <point x="5" y="549"/>
      <point x="18" y="549" type="curve" smooth="yes"/>
      <point x="80" y="549" type="line"/>
      <point x="80" y="24" type="line" smooth="yes"/>
      <point x="80" y="10"/>
      <point x="90" y="0"/>
      <point x="104" y="0" type="curve" smooth="yes"/>
      <point x="191" y="0" type="line" smooth="yes"/>
      <point x="205" y="0"/>
      <point x="215" y="10"/>
      <point x="215" y="24" type="curve" smooth="yes"/>
      <point x="215" y="291" type="line"/>
      <point x="215" y="368"/>
      <point x="264" y="413"/>
      <point x="333" y="413" type="curve" smooth="yes"/>
      <point x="405" y="413"/>
      <point x="447" y="367"/>
      <point x="447" y="291" type="curve" smooth="yes"/>
      <point x="447" y="-11" type="line" smooth="yes"/>
      <point x="447" y="-72"/>
      <point x="436" y="-116"/>
      <point x="371" y="-116" type="curve" smooth="yes"/>
      <point x="361" y="-116" type="line" smooth="yes"/>
      <point x="347" y="-116"/>
      <point x="337" y="-126"/>
      <point x="337" y="-140" type="curve" smooth="yes"/>
      <point x="337" y="-201" type="line" smooth="yes"/>
      <point x="337" y="-215"/>
      <point x="347" y="-225"/>
      <point x="361" y="-225" type="curve" smooth="yes"/>
    </contour>
  </outline>
</glyph>
<glyph name="Gheupturn-cy" format="1">
  <advance width="579"/>
  <unicode hex="0490"/>
  <outline>
    <contour>
      <point x="196" y="0" type="line" smooth="yes"/>
      <point x="210" y="0"/>
      <point x="221" y="10"/>
      <point x="221" y="24" type="curve" smooth="yes"/>
      <point x="221" y="580" type="line"/>
      <point x="537" y="580" type="line"/>
      <point x="552" y="580"/>
      <point x="562" y="590"/>
      <point x="562" y="604" type="curve" smooth="yes"/>
      <point x="562" y="786" type="line" smooth="yes"/>
      <point x="562" y="800"/>
      <point x="552" y="810"/>
      <point x="537" y="810" type="curve" smooth="yes"/>
      <point x="460" y="810" type="line" smooth="yes"/>
      <point x="446" y="810"/>
      <point x="436" y="800"/>
      <point x="436" y="786" type="curve" smooth="yes"/>
      <point x="436" y="700" type="line"/>
      <point x="102" y="700" type="line" smooth="yes"/>
      <point x="88" y="700"/>
      <point x="78" y="690"/>
      <point x="78" y="675" type="curve" smooth="yes"/>
      <point x="78" y="24" type="line" smooth="yes"/>
      <point x="78" y="10"/>
      <point x="88" y="0"/>
      <point x="102" y="0" type="curve" smooth="yes"/>
    </contour>
  </outline>
</glyph>
<glyph name="endash" format="1">
  <advance width="570"/>
  <unicode hex="2013"/>
  <outline>
    <contour>
      <point x="484" y="242" type="line" smooth="yes"/>
      <point x="497" y="242"/>
      <point x="508" y="253"/>
      <point x="508" y="266" type="curve" smooth="yes"/>
      <point x="508" y="334" type="line" smooth="yes"/>
      <point x="508" y="348"/>
      <point x="497" y="358"/>
      <point x="484" y="358" type="curve" smooth="yes"/>
      <point x="86" y="358" type="line" smooth="yes"/>
      <point x="72" y="358"/>
      <point x="62" y="348"/>
      <point x="62" y="334" type="curve" smooth="yes"/>
      <point x="62" y="266" type="line" smooth="yes"/>
      <point x="62" y="253"/>
      <point x="72" y="242"/>
      <point x="86" y="242" type="curve" smooth="yes"/>
    </contour>
  </outline>
</glyph>
<glyph name="zeroinferior" format="1">
  <advance width="370"/>
  <unicode hex="2080"/>
  <outline>
    <contour>
      <point x="275" y="-175"/>
      <point x="330" y="-122"/>
      <point x="335" y="-42" type="curve" smooth="yes"/>
      <point x="337" y="-8"/>
      <point x="337" y="14"/>
      <point x="335" y="51" type="curve" smooth="yes"/>
      <point x="330" y="131"/>
      <point x="280" y="185"/>
      <point x="186" y="185" type="curve" smooth="yes"/>
      <point x="91" y="185"/>
      <point x="41" y="131"/>
      <point x="36" y="51" type="curve" smooth="yes"/>
      <point x="34" y="14"/>
      <point x="34" y="-8"/>
      <point x="36" y="-42" type="curve" smooth="yes"/>
      <point x="41" y="-122"/>
      <point x="96" y="-175"/>
      <point x="186" y="-175" type="curve" smooth="yes"/>
    </contour>
    <contour>
      <point x="143" y="-97"/>
      <point x="129" y="-66"/>
      <point x="127" y="-37" type="curve" smooth="yes"/>
      <point x="125" y="-4"/>
      <point x="125" y="15"/>
      <point x="127" y="46" type="curve" smooth="yes"/>
      <point x="129" y="76"/>
      <point x="144" y="107"/>
      <point x="185" y="107" type="curve" smooth="yes"/>
      <point x="227" y="107"/>
      <point x="242" y="76"/>
      <point x="244" y="46" type="curve" smooth="yes"/>
      <point x="246" y="15"/>
      <point x="246" y="-4"/>
      <point x="244" y="-37" type="curve" smooth="yes"/>
      <point x="241" y="-66"/>
      <point x="227" y="-97"/>
      <point x="185" y="-97" type="curve" smooth="yes"/>
    </contour>
  </outline>
</glyph>
<glyph name="twoinferior" format="1">
  <advance width="349"/>
  <unicode hex="2082"/>
  <outline>
    <contour>
      <point x="299" y="-170" type="line" smooth="yes"/>
      <point x="312" y="-170"/>
      <point x="321" y="-161"/>
      <point x="321" y="-148" type="curve" smooth="yes"/>
      <point x="321" y="-116" type="line" smooth="yes"/>
      <point x="321" y="-103"/>
      <point x="312" y="-94"/>
      <point x="299" y="-94" type="curve" smooth="yes"/>
      <point x="167" y="-94" type="line"/>
      <point x="261" y="-30"/>
      <point x="306" y="7"/>
      <point x="306" y="74" type="curve" smooth="yes"/>
      <point x="306" y="137"/>
      <point x="255" y="185"/>
      <point x="173" y="185" type="curve" smooth="yes"/>
      <point x="99" y="185"/>
      <point x="40" y="137"/>
      <point x="36" y="80" type="curve"/>
      <point x="36" y="68"/>
      <point x="42" y="61"/>
      <point x="54" y="61" type="curve"/>
      <point x="99" y="61" type="line" smooth="yes"/>
      <point x="109" y="61"/>
      <point x="115" y="64"/>
      <point x="123" y="79" type="curve" smooth="yes"/>
      <point x="128" y="89"/>
      <point x="134" y="112"/>
      <point x="173" y="112" type="curve" smooth="yes"/>
      <point x="200" y="112"/>
      <point x="218" y="95"/>
      <point x="218" y="71" type="curve" smooth="yes"/>
      <point x="218" y="26"/>
      <point x="170" y="0"/>
      <point x="52" y="-86" type="curve" smooth="yes"/>
      <point x="33" y="-101"/>
      <point x="28" y="-110"/>
      <point x="28" y="-120" type="curve" smooth="yes"/>
      <point x="28" y="-148" type="line" smooth="yes"/>
      <point x="28" y="-161"/>
      <point x="37" y="-170"/>
      <point x="50" y="-170" type="curve" smooth="yes"/>
    </contour>
  </outline>
</glyph>
<glyph name="fiveinferior" format="1">
  <advance width="342"/>
  <unicode hex="2085"/>
  <outline>
    <contour>
      <point x="263" y="-175"/>
      <point x="312" y="-115"/>
      <point x="312" y="-54" type="curve" smooth="yes"/>
      <point x="312" y="15"/>
      <point x="261" y="58"/>
      <point x="189" y="58" type="curve" smooth="yes"/>
      <point x="154" y="58"/>
      <point x="138" y="51"/>
      <point x="126" y="44" type="curve"/>
      <point x="132" y="102" type="line"/>
      <point x="271" y="102" type="line" smooth="yes"/>
      <point x="284" y="102"/>
      <point x="293" y="111"/>
      <point x="293" y="124" type="curve" smooth="yes"/>
      <point x="293" y="158" type="line" smooth="yes"/>
      <point x="293" y="171"/>
      <point x="284" y="180"/>
      <point x="271" y="180" type="curve" smooth="yes"/>
      <point x="85" y="180" type="line"/>
      <point x="71" y="179"/>
      <point x="61" y="167"/>
      <point x="60" y="153" type="curve" smooth="yes"/>
      <point x="44" y="4" type="line" smooth="yes"/>
      <point x="42" y="-10"/>
      <point x="52" y="-22"/>
      <point x="66" y="-22" type="curve" smooth="yes"/>
      <point x="119" y="-22" type="line" smooth="yes"/>
      <point x="134" y="-22"/>
      <point x="133" y="-4"/>
      <point x="173" y="-4" type="curve" smooth="yes"/>
      <point x="204" y="-4"/>
      <point x="223" y="-24"/>
      <point x="223" y="-52" type="curve" smooth="yes"/>
      <point x="223" y="-79"/>
      <point x="202" y="-100"/>
      <point x="170" y="-100" type="curve" smooth="yes"/>
      <point x="128" y="-100"/>
      <point x="124" y="-83"/>
      <point x="109" y="-72" type="curve"/>
      <point x="103" y="-69"/>
      <point x="95" y="-66"/>
      <point x="87" y="-66" type="curve"/>
      <point x="44" y="-66" type="line" smooth="yes"/>
      <point x="38" y="-66"/>
      <point x="26" y="-72"/>
      <point x="27" y="-85" type="curve" smooth="yes"/>
      <point x="30" y="-122"/>
      <point x="71" y="-175"/>
      <point x="170" y="-175" type="curve" smooth="yes"/>
    </contour>
  </outline>
</glyph>
<glyph name="nineinferior" format="1">
  <advance width="346"/>
  <unicode hex="2089"/>
  <outline>
    <contour>
      <point x="154" y="-170" type="line" smooth="yes"/>
      <point x="165" y="-170"/>
      <point x="176" y="-163"/>
      <point x="183" y="-155" type="curve" smooth="yes"/>
      <point x="267" y="-51" type="line" smooth="yes"/>
      <point x="281" y="-34"/>
      <point x="317" y="9"/>
      <point x="317" y="60" type="curve" smooth="yes"/>
      <point x="317" y="138"/>
      <point x="250" y="185"/>
      <point x="169" y="185" type="curve" smooth="yes"/>
      <point x="87" y="185"/>
      <point x="22" y="134"/>
      <point x="22" y="59" type="curve" smooth="yes"/>
      <point x="22" y="-19"/>
      <point x="93" y="-61"/>
      <point x="156" y="-62" type="curve"/>
      <point x="99" y="-130" type="line" smooth="yes"/>
      <point x="93" y="-138"/>
      <point x="88" y="-144"/>
      <point x="88" y="-150" type="curve" smooth="yes"/>
      <point x="88" y="-161"/>
      <point x="97" y="-170"/>
      <point x="108" y="-170" type="curve" smooth="yes"/>
    </contour>
    <contour>
      <point x="132" y="8"/>
      <point x="109" y="29"/>
      <point x="109" y="60" type="curve" smooth="yes"/>
      <point x="109" y="90"/>
      <point x="132" y="111"/>
      <point x="168" y="111" type="curve" smooth="yes"/>
      <point x="205" y="111"/>
      <point x="227" y="90"/>
      <point x="227" y="60" type="curve" smooth="yes"/>
      <point x="227" y="29"/>
      <point x="205" y="8"/>
      <point x="168" y="8" type="curve" smooth="yes"/>
    </contour>
  </outline>
</glyph>
<glyph name="estimated" format="1">
  <advance width="637"/>
  <unicode hex="212E"/>
  <outline>
    <contour>
      <point x="494" y="-10"/>
      <point x="572" y="77"/>
      <point x="574" y="138" type="curve" smooth="yes"/>
      <point x="575" y="152"/>
      <point x="565" y="161"/>
      <point x="552" y="161" type="curve" smooth="yes"/>
      <point x="467" y="161" type="line" smooth="yes"/>
      <point x="451" y="161"/>
      <point x="444" y="159"/>
      <point x="435" y="145" type="curve" smooth="yes"/>
      <point x="419" y="113"/>
      <point x="385" y="89"/>
      <point x="321" y="89" type="curve" smooth="yes"/>
      <point x="248" y="89"/>
      <point x="196" y="142"/>
      <point x="193" y="245" type="curve" smooth="yes"/>
      <point x="193" y="255" type="line"/>
      <point x="564" y="255" type="line" smooth="yes"/>
      <point x="579" y="255"/>
      <point x="590" y="267"/>
      <point x="590" y="282" type="curve" smooth="yes"/>
      <point x="590" y="320" type="line" smooth="yes"/>
      <point x="589" y="496"/>
      <point x="489" y="610"/>
      <point x="321" y="610" type="curve" smooth="yes"/>
      <point x="165" y="610"/>
      <point x="63" y="504"/>
      <point x="54" y="337" type="curve" smooth="yes"/>
      <point x="53" y="321"/>
      <point x="53" y="284"/>
      <point x="54" y="269" type="curve" smooth="yes"/>
      <point x="63" y="94"/>
      <point x="160" y="-10"/>
      <point x="322" y="-10" type="curve" smooth="yes"/>
    </contour>
    <contour>
      <point x="194" y="357" type="line" smooth="yes"/>
      <point x="197" y="456"/>
      <point x="246" y="514"/>
      <point x="322" y="514" type="curve" smooth="yes"/>
      <point x="398" y="514"/>
      <point x="451" y="460"/>
      <point x="451" y="357" type="curve" smooth="yes"/>
      <point x="451" y="352" type="line"/>
      <point x="194" y="352" type="line"/>
    </contour>
  </outline>
</glyph>
<glyph name="infinity" format="1">
  <advance width="869"/>
  <unicode hex="221E"/>
  <outline>
    <contour>
      <point x="333" y="49"/>
      <point x="387" y="110"/>
      <point x="434" y="179" type="curve"/>
      <point x="482" y="110"/>
      <point x="537" y="49"/>
      <point x="623" y="49" type="curve" smooth="yes"/>
      <point x="759" y="49"/>
      <point x="816" y="160"/>
      <point x="816" y="271" type="curve" smooth="yes"/>
      <point x="816" y="382"/>
      <point x="759" y="493"/>
      <point x="622" y="493" type="curve" smooth="yes"/>
      <point x="537" y="493"/>
      <point x="482" y="428"/>
      <point x="435" y="357" type="curve"/>
      <point x="387" y="428"/>
      <point x="332" y="493"/>
      <point x="245" y="493" type="curve" smooth="yes"/>
      <point x="109" y="493"/>
      <point x="52" y="382"/>
      <point x="52" y="271" type="curve" smooth="yes"/>
      <point x="52" y="160"/>
      <point x="109" y="49"/>
      <point x="245" y="49" type="curve" smooth="yes"/>
    </contour>
    <contour>
      <point x="198" y="149"/>
      <point x="155" y="190"/>
      <point x="155" y="271" type="curve" smooth="yes"/>
      <point x="155" y="352"/>
      <point x="198" y="393"/>
      <point x="247" y="393" type="curve" smooth="yes"/>
      <point x="304" y="393"/>
      <point x="347" y="318"/>
      <point x="374" y="267" type="curve"/>
      <point x="349" y="219"/>
      <point x="304" y="149"/>
      <point x="247" y="149" type="curve" smooth="yes"/>
    </contour>
    <contour>
      <point x="564" y="148"/>
      <point x="519" y="220"/>
      <point x="494" y="268" type="curve"/>
      <point x="519" y="319"/>
      <point x="563" y="393"/>
      <point x="622" y="393" type="curve" smooth="yes"/>
      <point x="671" y="393"/>
      <point x="714" y="352"/>
      <point x="714" y="271" type="curve" smooth="yes"/>
      <point x="714" y="190"/>
      <point x="672" y="148"/>
      <point x="622" y="148" type="curve" smooth="yes"/>
    </contour>
  </outline>
</glyph>
<glyph name="integral" format="1">
  <advance width="437"/>
  <unicode hex="222B"/>
  <outline>
    <contour>
      <point x="93" y="-225" type="line" smooth="yes"/>
      <point x="214" y="-225"/>
      <point x="274" y="-149"/>
      <point x="274" y="-40" type="curve" smooth="yes"/>
      <point x="274" y="530" type="line" smooth="yes"/>
      <point x="274" y="589"/>
      <point x="295" y="621"/>
      <point x="353" y="621" type="curve" smooth="yes"/>
      <point x="396" y="621" type="line" smooth="yes"/>
      <point x="410" y="621"/>
      <point x="420" y="631"/>
      <point x="420" y="645" type="curve" smooth="yes"/>
      <point x="420" y="699" type="line" smooth="yes"/>
      <point x="420" y="713"/>
      <point x="410" y="723"/>
      <point x="396" y="723" type="curve" smooth="yes"/>
      <point x="344" y="723" type="line" smooth="yes"/>
      <point x="223" y="723"/>
      <point x="164" y="648"/>
      <point x="164" y="542" type="curve" smooth="yes"/>
      <point x="164" y="-32" type="line"/>
      <point x="164" y="-85"/>
      <point x="149" y="-122"/>
      <point x="85" y="-122" type="curve" smooth="yes"/>
      <point x="41" y="-122" type="line" smooth="yes"/>
      <point x="27" y="-122"/>
      <point x="17" y="-133"/>
      <point x="17" y="-147" type="curve" smooth="yes"/>
      <point x="17" y="-201" type="line" smooth="yes"/>
      <point x="17" y="-215"/>
      <point x="27" y="-225"/>
      <point x="41" y="-225" type="curve" smooth="yes"/>
    </contour>
  </outline>
</glyph>
<glyph name="greaterequal" format="1">
  <advance width="539"/>
  <unicode hex="2265"/>
  <outline>
    <contour>
      <point x="99" y="194"/>
      <point x="106" y="197"/>
      <point x="113" y="201" type="curve" smooth="yes"/>
      <point x="452" y="361" type="line" smooth="yes"/>
      <point x="472" y="371"/>
      <point x="481" y="383"/>
      <point x="481" y="402" type="curve" smooth="yes"/>
      <point x="481" y="431" type="line"/>
      <point x="481" y="451"/>
      <point x="472" y="462"/>
      <point x="452" y="473" type="curve" smooth="yes"/>
      <point x="113" y="633" type="line" smooth="yes"/>
      <point x="106" y="636"/>
      <point x="99" y="639"/>
      <point x="92" y="639" type="curve" smooth="yes"/>
      <point x="81" y="639"/>
      <point x="72" y="632"/>
      <point x="72" y="619" type="curve" smooth="yes"/>
      <point x="72" y="560" type="line" smooth="yes"/>
      <point x="72" y="540"/>
      <point x="83" y="530"/>
      <point x="98" y="524" type="curve" smooth="yes"/>
      <point x="338" y="417" type="line"/>
      <point x="98" y="309" type="line" smooth="yes"/>
      <point x="83" y="303"/>
      <point x="72" y="293"/>
      <point x="72" y="273" type="curve" smooth="yes"/>
      <point x="72" y="214" type="line" smooth="yes"/>
      <point x="72" y="202"/>
      <point x="81" y="194"/>
      <point x="92" y="194" type="curve" smooth="yes"/>
    </contour>
    <contour>
      <point x="456" y="0" type="line" smooth="yes"/>
      <point x="470" y="0"/>
      <point x="481" y="10"/>
      <point x="481" y="24" type="curve" smooth="yes"/>
      <point x="481" y="78" type="line" smooth="yes"/>
      <point x="481" y="92"/>
      <point x="470" y="102"/>
      <point x="456" y="102" type="curve" smooth="yes"/>
      <point x="96" y="102" type="line"/>
      <point x="82" y="102"/>
      <point x="72" y="92"/>
      <point x="72" y="78" type="curve" smooth="yes"/>
      <point x="72" y="24" type="line" smooth="yes"/>
      <point x="72" y="10"/>
      <point x="82" y="0"/>
      <point x="96" y="0" type="curve" smooth="yes"/>
    </contour>
  </outline>
</glyph>
<glyph name="Macron" format="1">
  <advance width="441"/>
  <unicode hex="F6D0"/>
  <outline>
    <contour>
      <point x="358" y="750" type="line" smooth="yes"/>
      <point x="371" y="750"/>
      <point x="380" y="759"/>
      <point x="380" y="772" type="curve" smooth="yes"/>
      <point x="380" y="829" type="line" smooth="yes"/>
      <point x="380" y="842"/>
      <point x="371" y="851"/>
      <point x="358" y="851" type="curve" smooth="yes"/>
      <point x="84" y="851" type="line" smooth="yes"/>
      <point x="71" y="851"/>
      <point x="62" y="842"/>
      <point x="62" y="829" type="curve" smooth="yes"/>
      <point x="62" y="772" type="line" smooth="yes"/>
      <point x="62" y="759"/>
      <point x="71" y="750"/>
      <point x="84" y="750" type="curve" smooth="yes"/>
    </contour>
  </outline>
</glyph>
<glyph name="at.cap" format="1">
  <advance width="831"/>
  <outline>
    <contour>
      <point x="584" y="-57"/>
      <point x="675" y="-1"/>
      <point x="730" y="61" type="curve" smooth="yes"/>
      <point x="733" y="65"/>
      <point x="736" y="69"/>
      <point x="736" y="75" type="curve" smooth="yes"/>
      <point x="736" y="89"/>
      <point x="726" y="99"/>
      <point x="712" y="99" type="curve" smooth="yes"/>
      <point x="656" y="99" type="line" smooth="yes"/>
      <point x="643" y="99"/>
      <point x="636" y="92"/>
      <point x="628" y="86" type="curve" smooth="yes"/>
      <point x="596" y="61"/>
      <point x="554" y="27"/>
      <point x="420" y="27" type="curve" smooth="yes"/>
      <point x="249" y="27"/>
      <point x="158" y="112"/>
      <point x="143" y="258" type="curve" smooth="yes"/>
      <point x="139" y="296"/>
      <point x="139" y="385"/>
      <point x="143" y="419" type="curve" smooth="yes"/>
      <point x="160" y="562"/>
      <point x="244" y="654"/>
      <point x="412" y="654" type="curve" smooth="yes"/>
      <point x="613" y="654"/>
      <point x="688" y="574"/>
      <point x="698" y="419" type="curve" smooth="yes"/>
      <point x="701" y="374"/>
      <point x="699" y="330"/>
      <point x="698" y="306" type="curve" smooth="yes"/>
      <point x="698" y="276"/>
      <point x="688" y="231"/>
      <point x="641" y="231" type="curve" smooth="yes"/>
      <point x="606" y="231"/>
      <point x="583" y="256"/>
      <point x="583" y="306" type="curve" smooth="yes"/>
      <point x="583" y="513" type="line" smooth="yes"/>
      <point x="583" y="527"/>
      <point x="573" y="537"/>
      <point x="559" y="537" type="curve" smooth="yes"/>
      <point x="519" y="537" type="line" smooth="yes"/>
      <point x="505" y="537"/>
      <point x="495" y="527"/>
      <point x="495" y="513" type="curve" smooth="yes"/>
      <point x="495" y="498" type="line"/>
      <point x="476" y="523"/>
      <point x="447" y="545"/>
      <point x="394" y="545" type="curve" smooth="yes"/>
      <point x="295" y="545"/>
      <point x="234" y="468"/>
      <point x="234" y="340" type="curve" smooth="yes"/>
      <point x="234" y="212"/>
      <point x="297" y="136"/>
      <point x="396" y="136" type="curve" smooth="yes"/>
      <point x="479" y="136"/>
      <point x="509" y="174"/>
      <point x="524" y="200" type="curve"/>
      <point x="537" y="183"/>
      <point x="574" y="146"/>
      <point x="641" y="146" type="curve" smooth="yes"/>
      <point x="720" y="146"/>
      <point x="780" y="198"/>
      <point x="786" y="296" type="curve" smooth="yes"/>
      <point x="787" y="320"/>
      <point x="789" y="379"/>
      <point x="786" y="424" type="curve" smooth="yes"/>
      <point x="774" y="612"/>
      <point x="672" y="738"/>
      <point x="412" y="738" type="curve" smooth="yes"/>
      <point x="190" y="738"/>
      <point x="73" y="600"/>
      <point x="55" y="424" type="curve" smooth="yes"/>
      <point x="51" y="390"/>
      <point x="51" y="290"/>
      <point x="55" y="253" type="curve" smooth="yes"/>
      <point x="73" y="66"/>
      <point x="190" y="-57"/>
      <point x="420" y="-57" type="curve" smooth="yes"/>
    </contour>
    <contour>
      <point x="349" y="221"/>
      <point x="322" y="269"/>
      <point x="322" y="340" type="curve" smooth="yes"/>
      <point x="322" y="417"/>
      <point x="349" y="461"/>
      <point x="408" y="461" type="curve" smooth="yes"/>
      <point x="471" y="461"/>
      <point x="495" y="417"/>
      <point x="495" y="340" type="curve" smooth="yes"/>
      <point x="495" y="263"/>
      <point x="471" y="221"/>
      <point x="408" y="221" type="curve" smooth="yes"/>
    </contour>
  </outline>
</glyph>
<glyph name="bracketright.cap" format="1">
  <advance width="373"/>
  <outline>
    <contour>
      <point x="278" y="-117" type="line" smooth="yes"/>
      <point x="292" y="-117"/>
      <point x="303" y="-107"/>
      <point x="303" y="-93" type="curve" smooth="yes"/>
      <point x="303" y="794" type="line" smooth="yes"/>
      <point x="303" y="808"/>
      <point x="292" y="818"/>
      <point x="278" y="818" type="curve" smooth="yes"/>
      <point x="64" y="818" type="line" smooth="yes"/>
      <point x="50" y="818"/>
      <point x="40" y="808"/>
      <point x="40" y="794" type="curve" smooth="yes"/>
      <point x="40" y="732" type="line" smooth="yes"/>
      <point x="40" y="718"/>
      <point x="50" y="708"/>
      <point x="64" y="708" type="curve" smooth="yes"/>
      <point x="179" y="708" type="line"/>
      <point x="179" y="1" type="line"/>
      <point x="64" y="1" type="line" smooth="yes"/>
      <point x="50" y="1"/>
      <point x="40" y="-10"/>
      <point x="40" y="-24" type="curve" smooth="yes"/>
      <point x="40" y="-93" type="line" smooth="yes"/>
      <point x="40" y="-107"/>
      <point x="50" y="-117"/>
      <point x="64" y="-117" type="curve" smooth="yes"/>
    </contour>
  </outline>
</glyph>
<glyph name="equal.cap" format="1">
  <advance width="568"/>
  <outline>
    <contour>
      <point x="478" y="423" type="line" smooth="yes"/>
      <point x="491" y="423"/>
      <point x="502" y="433"/>
      <point x="502" y="447" type="curve" smooth="yes"/>
      <point x="502" y="503" type="line" smooth="yes"/>
      <point x="502" y="517"/>
      <point x="491" y="527"/>
      <point x="478" y="527" type="curve" smooth="yes"/>
      <point x="90" y="527" type="line" smooth="yes"/>
      <point x="76" y="527"/>
      <point x="66" y="517"/>
      <point x="66" y="503" type="curve" smooth="yes"/>
      <point x="66" y="447" type="line" smooth="yes"/>
      <point x="66" y="433"/>
      <point x="76" y="423"/>
      <point x="90" y="423" type="curve" smooth="yes"/>
    </contour>
    <contour>
      <point x="478" y="173" type="line" smooth="yes"/>
      <point x="491" y="173"/>
      <point x="502" y="183"/>
      <point x="502" y="197" type="curve" smooth="yes"/>
      <point x="502" y="253" type="line" smooth="yes"/>
      <point x="502" y="267"/>
      <point x="491" y="277"/>
      <point x="478" y="277" type="curve" smooth="yes"/>
      <point x="90" y="277" type="line" smooth="yes"/>
      <point x="76" y="277"/>
      <point x="66" y="267"/>
      <point x="66" y="253" type="curve" smooth="yes"/>
      <point x="66" y="197" type="line" smooth="yes"/>
      <point x="66" y="183"/>
      <point x="76" y="173"/>
      <point x="90" y="173" type="curve" smooth="yes"/>
    </contour>
  </outline>
</glyph>
<glyph name="f_f_i" format="1">
  <advance width="952"/>
  <outline>
    <contour>
      <point x="229" y="0" type="line"/>
      <point x="243" y="0"/>
      <point x="253" y="10"/>
      <point x="253" y="24" type="curve"/>
      <point x="253" y="413" type="line"/>
      <point x="458" y="413" type="line"/>
      <point x="458" y="24" type="line"/>
      <point x="458" y="10"/>
      <point x="468" y="0"/>
      <point x="482" y="0" type="curve"/>
      <point x="565" y="0" type="line"/>
      <point x="579" y="0"/>
      <point x="589" y="10"/>
      <point x="589" y="24" type="curve"/>
      <point x="589" y="413" type="line"/>
      <point x="755" y="413" type="line"/>
      <point x="755" y="24" type="line"/>
      <point x="755" y="10"/>
      <point x="765" y="0"/>
      <point x="779" y="0" type="curve"/>
      <point x="862" y="0" type="line"/>
      <point x="875" y="0"/>
      <point x="886" y="10"/>
      <point x="886" y="24" type="curve"/>
      <point x="886" y="496" type="line"/>
      <point x="886" y="510"/>
      <point x="875" y="520"/>
      <point x="862" y="520" type="curve"/>
      <point x="589" y="520" type="line"/>
      <point x="589" y="555" type="line"/>
      <point x="589" y="606"/>
      <point x="605" y="633"/>
      <point x="659" y="633" type="curve"/>
      <point x="862" y="633" type="line"/>
      <point x="875" y="633"/>
      <point x="886" y="644"/>
      <point x="886" y="657" type="curve"/>
      <point x="886" y="716" type="line"/>
      <point x="886" y="730"/>
      <point x="875" y="740"/>
      <point x="862" y="740" type="curve"/>
      <point x="654" y="740" type="line"/>
      <point x="523" y="740"/>
      <point x="458" y="681"/>
      <point x="458" y="560" type="curve"/>
      <point x="458" y="520" type="line"/>
      <point x="253" y="520" type="line"/>
      <point x="253" y="555" type="line"/>
      <point x="253" y="606"/>
      <point x="269" y="633"/>
      <point x="323" y="633" type="curve"/>
      <point x="387" y="633" type="line"/>
      <point x="401" y="633"/>
      <point x="411" y="644"/>
      <point x="411" y="657" type="curve"/>
      <point x="411" y="716" type="line"/>
      <point x="411" y="730"/>
      <point x="401" y="740"/>
      <point x="387" y="740" type="curve"/>
      <point x="318" y="740" type="line"/>
      <point x="187" y="740"/>
      <point x="122" y="681"/>
      <point x="122" y="560" type="curve"/>
      <point x="122" y="520" type="line"/>
      <point x="41" y="520" type="line"/>
      <point x="27" y="520"/>
      <point x="17" y="510"/>
      <point x="17" y="496" type="curve"/>
      <point x="17" y="437" type="line"/>
      <point x="17" y="424"/>
      <point x="27" y="413"/>
      <point x="41" y="413" type="curve"/>
      <point x="122" y="413" type="line"/>
      <point x="122" y="24" type="line"/>
      <point x="122" y="10"/>
      <point x="132" y="0"/>
      <point x="146" y="0" type="curve"/>
    </contour>
  </outline>
</glyph>
<glyph name="f_f_l" format="1">
  <advance width="992"/>
  <outline>
    <contour>
      <point x="229" y="0" type="line"/>
      <point x="243" y="0"/>
      <point x="253" y="10"/>
      <point x="253" y="24" type="curve"/>
      <point x="253" y="413" type="line"/>
      <point x="458" y="413" type="line"/>
      <point x="458" y="24" type="line"/>
      <point x="458" y="10"/>
      <point x="468" y="0"/>
      <point x="482" y="0" type="curve"/>
      <point x="565" y="0" type="line"/>
      <point x="579" y="0"/>
      <point x="589" y="10"/>
      <point x="589" y="24" type="curve"/>
      <point x="589" y="413" type="line"/>
      <point x="794" y="413" type="line"/>
      <point x="794" y="24" type="line"/>
      <point x="794" y="10"/>
      <point x="804" y="0"/>
      <point x="818" y="0" type="curve"/>
      <point x="901" y="0" type="line"/>
      <point x="915" y="0"/>
      <point x="925" y="10"/>
      <point x="925" y="24" type="curve"/>
      <point x="925" y="716" type="line"/>
      <point x="925" y="730"/>
      <point x="915" y="740"/>
      <point x="901" y="740" type="curve"/>
      <point x="818" y="740" type="line"/>
      <point x="804" y="740"/>
      <point x="794" y="730"/>
      <point x="794" y="716" type="curve"/>
      <point x="794" y="520" type="line"/>
      <point x="589" y="520" type="line"/>
      <point x="589" y="555" type="line"/>
      <point x="589" y="606"/>
      <point x="605" y="633"/>
      <point x="659" y="633" type="curve"/>
      <point x="715" y="633" type="line"/>
      <point x="729" y="633"/>
      <point x="739" y="644"/>
      <point x="739" y="657" type="curve"/>
      <point x="739" y="716" type="line"/>
      <point x="739" y="730"/>
      <point x="729" y="740"/>
      <point x="715" y="740" type="curve"/>
      <point x="654" y="740" type="line"/>
      <point x="523" y="740"/>
      <point x="458" y="681"/>
      <point x="458" y="560" type="curve"/>
      <point x="458" y="520" type="line"/>
      <point x="253" y="520" type="line"/>
      <point x="253" y="555" type="line"/>
      <point x="253" y="606"/>
      <point x="269" y="633"/>
      <point x="323" y="633" type="curve"/>
      <point x="387" y="633" type="line"/>
      <point x="401" y="633"/>
      <point x="411" y="644"/>
      <point x="411" y="657" type="curve"/>
      <point x="411" y="716" type="line"/>
      <point x="411" y="730"/>
      <point x="401" y="740"/>
      <point x="387" y="740" type="curve"/>
      <point x="318" y="740" type="line"/>
      <point x="187" y="740"/>
      <point x="122" y="681"/>
      <point x="122" y="560" type="curve"/>
      <point x="122" y="520" type="line"/>
      <point x="41" y="520" type="line"/>
      <point x="27" y="520"/>
      <point x="17" y="510"/>
      <point x="17" y="496" type="curve"/>
      <point x="17" y="437" type="line"/>
      <point x="17" y="424"/>
      <point x="27" y="413"/>
      <point x="41" y="413" type="curve"/>
      <point x="122" y="413" type="line"/>
      <point x="122" y="24" type="line"/>
      <point x="122" y="10"/>
      <point x="132" y="0"/>
      <point x="146" y="0" type="curve"/>
    </contour>
  </outline>
</glyph>
<glyph name="four.otlf" format="1">
  <advance width="642"/>
  <outline>
    <contour>
      <point x="478" y="0" type="line" smooth="yes"/>
      <point x="492" y="0"/>
      <point x="502" y="10"/>
      <point x="502" y="24" type="curve" smooth="yes"/>
      <point x="502" y="152" type="line"/>
      <point x="592" y="152" type="line" smooth="yes"/>
      <point x="606" y="152"/>
      <point x="616" y="162"/>
      <point x="616" y="176" type="curve" smooth="yes"/>
      <point x="616" y="247" type="line" smooth="yes"/>
      <point x="616" y="261"/>
      <point x="606" y="271"/>
      <point x="591" y="271" type="curve" smooth="yes"/>
      <point x="502" y="271" type="line"/>
      <point x="502" y="676" type="line" smooth="yes"/>
      <point x="502" y="690"/>
      <point x="492" y="700"/>
      <point x="478" y="700" type="curve" smooth="yes"/>
      <point x="367" y="700" type="line" smooth="yes"/>
      <point x="351" y="700"/>
      <point x="338" y="693"/>
      <point x="330" y="683" type="curve" smooth="yes"/>
      <point x="35" y="275" type="line" smooth="yes"/>
      <point x="28" y="265"/>
      <point x="24" y="253"/>
      <point x="24" y="245" type="curve" smooth="yes"/>
      <point x="24" y="176" type="line" smooth="yes"/>
      <point x="24" y="162"/>
      <point x="34" y="152"/>
      <point x="48" y="152" type="curve" smooth="yes"/>
      <point x="365" y="152" type="line"/>
      <point x="365" y="24" type="line" smooth="yes"/>
      <point x="365" y="10"/>
      <point x="375" y="0"/>
      <point x="389" y="0" type="curve" smooth="yes"/>
    </contour>
    <contour>
      <point x="368" y="554" type="line"/>
      <point x="368" y="267" type="line"/>
      <point x="165" y="267" type="line"/>
    </contour>
  </outline>
</glyph>
<glyph name="multiply.cap" format="1">
  <advance width="581"/>
  <outline>
    <contour>
      <point x="126" y="110"/>
      <point x="141" y="110"/>
      <point x="150" y="119" type="curve" smooth="yes"/>
      <point x="290" y="259" type="line"/>
      <point x="430" y="120" type="line" smooth="yes"/>
      <point x="440" y="110"/>
      <point x="454" y="110"/>
      <point x="464" y="120" type="curve" smooth="yes"/>
      <point x="521" y="177" type="line" smooth="yes"/>
      <point x="530" y="186"/>
      <point x="530" y="201"/>
      <point x="521" y="211" type="curve" smooth="yes"/>
      <point x="381" y="350" type="line"/>
      <point x="521" y="490" type="line" smooth="yes"/>
      <point x="530" y="500"/>
      <point x="530" y="514"/>
      <point x="521" y="524" type="curve" smooth="yes"/>
      <point x="464" y="581" type="line" smooth="yes"/>
      <point x="454" y="590"/>
      <point x="440" y="590"/>
      <point x="430" y="581" type="curve" smooth="yes"/>
      <point x="290" y="441" type="line"/>
      <point x="150" y="581" type="line" smooth="yes"/>
      <point x="141" y="591"/>
      <point x="126" y="591"/>
      <point x="116" y="581" type="curve" smooth="yes"/>
      <point x="59" y="524" type="line" smooth="yes"/>
      <point x="50" y="514"/>
      <point x="50" y="500"/>
      <point x="59" y="490" type="curve" smooth="yes"/>
      <point x="199" y="350" type="line"/>
      <point x="59" y="210" type="line" smooth="yes"/>
      <point x="50" y="201"/>
      <point x="50" y="186"/>
      <point x="59" y="176" type="curve" smooth="yes"/>
      <point x="116" y="119" type="line" smooth="yes"/>
    </contour>
  </outline>
</glyph>
<glyph name="parenleft.cap" format="1">
  <advance width="382"/>
  <outline>
    <contour>
      <point x="334" y="-117"/>
      <point x="345" y="-106"/>
      <point x="345" y="-93" type="curve" smooth="yes"/>
      <point x="345" y="-32" type="line" smooth="yes"/>
      <point x="345" y="-19"/>
      <point x="334" y="-8"/>
      <point x="323" y="-8" type="curve" smooth="yes"/>
      <point x="213" y="-4"/>
      <point x="178" y="106"/>
      <point x="178" y="351" type="curve" smooth="yes"/>
      <point x="178" y="596"/>
      <point x="213" y="705"/>
      <point x="323" y="709" type="curve" smooth="yes"/>
      <point x="334" y="709"/>
      <point x="345" y="720"/>
      <point x="345" y="733" type="curve" smooth="yes"/>
      <point x="345" y="794" type="line" smooth="yes"/>
      <point x="345" y="807"/>
      <point x="334" y="818"/>
      <point x="321" y="818" type="curve" smooth="yes"/>
      <point x="143" y="818"/>
      <point x="56" y="681"/>
      <point x="56" y="351" type="curve" smooth="yes"/>
      <point x="56" y="21"/>
      <point x="143" y="-117"/>
      <point x="321" y="-117" type="curve" smooth="yes"/>
    </contour>
  </outline>
</glyph>
